<svg xmlns="http://www.w3.org/2000/svg" width="16.07" height="19.936" viewBox="0 0 16.07 19.936">
  <path id="Apple_Icon" data-name="Apple Icon" d="M1281.339,63.57a4.532,4.532,0,0,1,2.138-3.8,4.581,4.581,0,0,0-3.62-1.975c-1.523-.162-3,.919-3.776.919-.791,0-1.986-.9-3.274-.877a4.815,4.815,0,0,0-4.057,2.5c-1.754,3.065-.446,7.571,1.235,10.049.841,1.214,1.823,2.569,3.109,2.521,1.258-.052,1.728-.81,3.246-.81s1.946.81,3.257.779c1.35-.022,2.2-1.219,3.012-2.444a10.055,10.055,0,0,0,1.378-2.832A4.371,4.371,0,0,1,1281.339,63.57Zm-2.478-7.408a4.483,4.483,0,0,0,1.011-3.194,4.484,4.484,0,0,0-2.909,1.518,4.27,4.27,0,0,0-1.038,3.078A3.7,3.7,0,0,0,1278.861,56.163Z" transform="translate(-1267.916 -52.968)" fill="#fff"/>
</svg>
