<svg xmlns="http://www.w3.org/2000/svg" width="23.999" height="14.999" viewBox="0 0 23.999 14.999">
  <path id="Google_Icon" data-name="Google Icon" d="M293,7471.5a7.557,7.557,0,0,1,7.615-7.5,7.643,7.643,0,0,1,5.135,1.965l-2.243,2.164a4.5,4.5,0,0,0-2.892-1.044,4.414,4.414,0,1,0,4.189,5.98h-4.287v-3.133h7.545a7.417,7.417,0,0,1,.165,1.565,7.615,7.615,0,0,1-15.228,0Zm19.421,3.181v-2.611h-2.65v-1.9h2.65v-2.609h1.928v2.609H317v1.9h-2.65v2.611Z" transform="translate(-293.001 -7464)" fill="#26272d" opacity="0.302"/>
</svg>
