<svg xmlns="http://www.w3.org/2000/svg" xmlns:xlink="http://www.w3.org/1999/xlink" width="904.025" height="771.178" viewBox="0 0 904.025 771.178">
  <defs>
    <filter id="Body_2">
      <feOffset dy="-14" input="SourceAlpha"/>
      <feGaussianBlur stdDeviation="13.5" result="blur"/>
      <feFlood flood-color="#010101" flood-opacity="0.141" result="color"/>
      <feComposite operator="out" in="SourceGraphic" in2="blur"/>
      <feComposite operator="in" in="color"/>
      <feComposite operator="in" in2="SourceGraphic"/>
    </filter>
    <linearGradient id="linear-gradient" x1="1" y1="0.319" x2="0" y2="0.681" gradientUnits="objectBoundingBox">
      <stop offset="0" stop-color="#d7d7d7"/>
      <stop offset="1" stop-color="#fff"/>
    </linearGradient>
    <filter id="Body_2-2">
      <feOffset dy="-14" input="SourceAlpha"/>
      <feGaussianBlur stdDeviation="13.5" result="blur-2"/>
      <feFlood flood-color="#010101" flood-opacity="0.141" result="color-2"/>
      <feComposite operator="out" in="SourceGraphic" in2="blur-2"/>
      <feComposite operator="in" in="color-2"/>
      <feComposite operator="in" in2="SourceGraphic"/>
    </filter>
    <clipPath id="clip-path">
      <g transform="matrix(1, 0, 0, 1, 0, 0)" filter="url(#Body_2)">
        <path id="Body_2-3" data-name="Body 2" d="M41.136,149.752,308.387,28.5c28.919-13.012,67.7-8.616,87.112,9.908l507.437,477.6c26.545,25.336,20.559,65.354-10.364,84.317L603.9,777.352c-34.971,21.445-84.589,14.93-110.043-14.381L34,231C13.059,210.059,3.814,168.7,41.136,149.752Z" fill="#f4f4f5"/>
      </g>
    </clipPath>
    <filter id="Headphones_Port">
      <feOffset dx="-3.951" dy="0.626" input="SourceAlpha"/>
      <feGaussianBlur stdDeviation="3.5" result="blur-3"/>
      <feFlood flood-color="#fff" flood-opacity="0.18" result="color-3"/>
      <feComposite operator="out" in="SourceGraphic" in2="blur-3"/>
      <feComposite operator="in" in="color-3"/>
      <feComposite operator="in" in2="SourceGraphic"/>
    </filter>
    <filter id="Holes">
      <feOffset dx="4.145" dy="2.796" input="SourceAlpha"/>
      <feGaussianBlur stdDeviation="2" result="blur-4"/>
      <feFlood flood-color="#010101" flood-opacity="0.522" result="color-4"/>
      <feComposite operator="out" in="SourceGraphic" in2="blur-4"/>
      <feComposite operator="in" in="color-4"/>
      <feComposite operator="in" in2="SourceGraphic"/>
    </filter>
    <filter id="Body_1">
      <feOffset dy="-3" input="SourceAlpha"/>
      <feGaussianBlur stdDeviation="13.5" result="blur-5"/>
      <feFlood flood-color="#fff" flood-opacity="0.549" result="color-5"/>
      <feComposite operator="out" in="SourceGraphic" in2="blur-5"/>
      <feComposite operator="in" in="color-5"/>
      <feComposite operator="in" in2="SourceGraphic"/>
    </filter>
    <filter id="Button" x="114.336" y="314.706" width="50.416" height="56.672" filterUnits="userSpaceOnUse">
      <feOffset input="SourceAlpha"/>
      <feGaussianBlur stdDeviation="1.5" result="blur-6"/>
      <feFlood flood-color="#3d3d3e" flood-opacity="0.149"/>
      <feComposite operator="in" in2="blur-6"/>
      <feComposite in="SourceGraphic"/>
    </filter>
    <filter id="Button-2">
      <feOffset dy="-2" input="SourceAlpha"/>
      <feGaussianBlur stdDeviation="1" result="blur-7"/>
      <feFlood flood-color="#010101" flood-opacity="0.141" result="color-6"/>
      <feComposite operator="out" in="SourceGraphic" in2="blur-7"/>
      <feComposite operator="in" in="color-6"/>
      <feComposite operator="in" in2="SourceGraphic"/>
    </filter>
    <filter id="Button-3" x="67.336" y="262.706" width="50.416" height="55.672" filterUnits="userSpaceOnUse">
      <feOffset input="SourceAlpha"/>
      <feGaussianBlur stdDeviation="1.5" result="blur-8"/>
      <feFlood flood-color="#3d3d3e" flood-opacity="0.149"/>
      <feComposite operator="in" in2="blur-8"/>
      <feComposite in="SourceGraphic"/>
    </filter>
    <filter id="Button-4">
      <feOffset dy="-2" input="SourceAlpha"/>
      <feGaussianBlur stdDeviation="1" result="blur-9"/>
      <feFlood flood-color="#010101" flood-opacity="0.141" result="color-7"/>
      <feComposite operator="out" in="SourceGraphic" in2="blur-9"/>
      <feComposite operator="in" in="color-7"/>
      <feComposite operator="in" in2="SourceGraphic"/>
    </filter>
    <filter id="Button-5" x="27.378" y="214.7" width="30.819" height="32.963" filterUnits="userSpaceOnUse">
      <feOffset input="SourceAlpha"/>
      <feGaussianBlur stdDeviation="1.5" result="blur-10"/>
      <feFlood flood-color="#3d3d3e" flood-opacity="0.149"/>
      <feComposite operator="in" in2="blur-10"/>
      <feComposite in="SourceGraphic"/>
    </filter>
    <filter id="Button-6">
      <feOffset dy="-2" input="SourceAlpha"/>
      <feGaussianBlur stdDeviation="1" result="blur-11"/>
      <feFlood flood-color="#010101" flood-opacity="0.141" result="color-8"/>
      <feComposite operator="out" in="SourceGraphic" in2="blur-11"/>
      <feComposite operator="in" in="color-8"/>
      <feComposite operator="in" in2="SourceGraphic"/>
    </filter>
    <filter id="Hole">
      <feOffset dx="4.145" dy="2.796" input="SourceAlpha"/>
      <feGaussianBlur stdDeviation="2" result="blur-12"/>
      <feFlood flood-color="#010101" flood-opacity="0.522" result="color-9"/>
      <feComposite operator="out" in="SourceGraphic" in2="blur-12"/>
      <feComposite operator="in" in="color-9"/>
      <feComposite operator="in" in2="SourceGraphic"/>
    </filter>
    <clipPath id="clip-path-2">
      <path id="Port" d="M731.55,683.263l37.481-23.317c3.384-2.066,7.2-1.744,8.513.719s-.358,6.134-3.742,8.2l-37.481,23.317c-3.384,2.066-7.2,1.744-8.513-.719S728.166,685.329,731.55,683.263Z" fill="url(#linear-gradient)"/>
    </clipPath>
    <filter id="Port-2" x="705.646" y="637.852" width="54.049" height="37.957" filterUnits="userSpaceOnUse">
      <feOffset dx="1.913" dy="0.585" input="SourceAlpha"/>
      <feGaussianBlur stdDeviation="0.5" result="blur-13"/>
      <feFlood flood-color="#191919" flood-opacity="0.322"/>
      <feComposite operator="in" in2="blur-13"/>
      <feComposite in="SourceGraphic"/>
    </filter>
  </defs>
  <g id="iPhone_6" data-name="iPhone 6" transform="translate(-15.712 -18.818)">
    <g id="Body_2-4" data-name="Body 2">
      <g data-type="innerShadowGroup">
        <path id="Body_2-5" data-name="Body 2" d="M41.136,149.752,308.387,28.5c28.919-13.012,67.7-8.616,87.112,9.908l507.437,477.6c26.545,25.336,20.559,65.354-10.364,84.317L603.9,777.352c-34.971,21.445-84.589,14.93-110.043-14.381L34,231C13.059,210.059,3.814,168.7,41.136,149.752Z" fill="#f4f4f5"/>
        <g transform="matrix(1, 0, 0, 1, 15.71, 18.82)" filter="url(#Body_2-2)">
          <path id="Body_2-6" data-name="Body 2" d="M41.136,149.752,308.387,28.5c28.919-13.012,67.7-8.616,87.112,9.908l507.437,477.6c26.545,25.336,20.559,65.354-10.364,84.317L603.9,777.352c-34.971,21.445-84.589,14.93-110.043-14.381L34,231C13.059,210.059,3.814,168.7,41.136,149.752Z" transform="translate(-15.71 -18.82)" fill="#fff"/>
        </g>
      </g>
      <g id="Clip" clip-path="url(#clip-path)">
        <g data-type="innerShadowGroup">
          <path id="Headphones_Port-2" data-name="Headphones Port" d="M623.2,750.55a10.578,10.578,0,0,1,1.924-.445c.307-.041.609-.067.906-.082s.589-.017.877-.011.574.026.856.055.56.069.835.12a8.614,8.614,0,0,1,1.611.46c2.073.745,4.053,3.858,4.628,6.336a5.746,5.746,0,0,1,.137.874q.016.211.014.414t-.023.4a3.643,3.643,0,0,1-.448,1.42c-.482.865-1.349.647-2.5,1.388-2.335,1.445-5.468,3.158-8.21,4.895-1.4.863-2.684,1.707-3.986,2.523-.324.2-.648.4-.973.589s-.651.37-.979.537a9.7,9.7,0,0,1-1.961.773,4.086,4.086,0,0,1-.952.188q-.114.008-.224.008l-.11,0-.108-.006a2.716,2.716,0,0,1-.414-.06,2.284,2.284,0,0,1-1.319-.834,3.77,3.77,0,0,1-.691-1.716,7.474,7.474,0,0,1-.1-1.146q0-.308.012-.635t.052-.673c.035-.443.088-.887.156-1.328s.149-.878.243-1.308a19.47,19.47,0,0,1,.712-2.476,16.223,16.223,0,0,1,2.371-4.347,17.462,17.462,0,0,1,7.66-5.909Z" fill="#666"/>
          <g transform="matrix(1, 0, 0, 1, 15.71, 18.82)" filter="url(#Headphones_Port)">
            <path id="Headphones_Port-3" data-name="Headphones Port" d="M623.2,750.55a10.578,10.578,0,0,1,1.924-.445c.307-.041.609-.067.906-.082s.589-.017.877-.011.574.026.856.055.56.069.835.12a8.614,8.614,0,0,1,1.611.46c2.073.745,4.053,3.858,4.628,6.336a5.746,5.746,0,0,1,.137.874q.016.211.014.414t-.023.4a3.643,3.643,0,0,1-.448,1.42c-.482.865-1.349.647-2.5,1.388-2.335,1.445-5.468,3.158-8.21,4.895-1.4.863-2.684,1.707-3.986,2.523-.324.2-.648.4-.973.589s-.651.37-.979.537a9.7,9.7,0,0,1-1.961.773,4.086,4.086,0,0,1-.952.188q-.114.008-.224.008l-.11,0-.108-.006a2.716,2.716,0,0,1-.414-.06,2.284,2.284,0,0,1-1.319-.834,3.77,3.77,0,0,1-.691-1.716,7.474,7.474,0,0,1-.1-1.146q0-.308.012-.635t.052-.673c.035-.443.088-.887.156-1.328s.149-.878.243-1.308a19.47,19.47,0,0,1,.712-2.476,16.223,16.223,0,0,1,2.371-4.347,17.462,17.462,0,0,1,7.66-5.909Z" transform="translate(-15.71 -18.82)" fill="#fff"/>
          </g>
        </g>
        <g data-type="innerShadowGroup">
          <path id="Holes-2" data-name="Holes" d="M824.311,641c-.067,0-.131,0-.2-.007-.13-.008-.256-.022-.378-.04a2.5,2.5,0,0,1-1.219-.474,1.446,1.446,0,0,1-.518-1.031,3.151,3.151,0,0,1,.024-.743,5.473,5.473,0,0,1,.207-.884,7.812,7.812,0,0,1,2.59-3.723,7.521,7.521,0,0,1,3.815-1.6,4.918,4.918,0,0,1,.86-.008,3.667,3.667,0,0,1,.779.146,2.534,2.534,0,0,1,1.207.761,2.325,2.325,0,0,1,.534,1.286,2.96,2.96,0,0,1,.014.37,3.271,3.271,0,0,1-.24,1.146,6.744,6.744,0,0,1-2.665,2.806,10.562,10.562,0,0,1-3.774,1.9,4.936,4.936,0,0,1-.84.092h-.2Zm12.726-7.667-.2-.008c-.129-.008-.256-.021-.377-.04a2.5,2.5,0,0,1-1.219-.474,1.439,1.439,0,0,1-.518-1.031,3.1,3.1,0,0,1,.024-.742,5.541,5.541,0,0,1,.206-.884,7.818,7.818,0,0,1,2.591-3.724,7.525,7.525,0,0,1,3.814-1.6,4.919,4.919,0,0,1,.859-.008,3.673,3.673,0,0,1,.779.146,2.538,2.538,0,0,1,1.208.761,2.317,2.317,0,0,1,.533,1.286,2.794,2.794,0,0,1,.015.37,3.239,3.239,0,0,1-.033.38,3.374,3.374,0,0,1-.207.766,6.753,6.753,0,0,1-2.664,2.807,10.589,10.589,0,0,1-3.774,1.9,4.962,4.962,0,0,1-.84.092h-.2Zm12.723-7.668-.2-.008c-.13-.008-.256-.021-.378-.04a2.5,2.5,0,0,1-1.219-.474,1.443,1.443,0,0,1-.518-1.031,3.15,3.15,0,0,1,.024-.743,5.563,5.563,0,0,1,.206-.884,7.818,7.818,0,0,1,2.587-3.724,7.506,7.506,0,0,1,3.811-1.6,4.909,4.909,0,0,1,.859-.008,3.674,3.674,0,0,1,.778.146,2.528,2.528,0,0,1,1.207.761,2.327,2.327,0,0,1,.535,1.286,2.8,2.8,0,0,1,.014.37,3.22,3.22,0,0,1-.031.38,3.368,3.368,0,0,1-.206.766,6.727,6.727,0,0,1-2.66,2.808,10.552,10.552,0,0,1-3.771,1.9,4.935,4.935,0,0,1-.84.092l-.118,0Zm12.706-7.672-.2-.008c-.129-.008-.255-.021-.377-.039a2.518,2.518,0,0,1-1.218-.474,1.448,1.448,0,0,1-.52-1.031,3.143,3.143,0,0,1,.023-.743,5.549,5.549,0,0,1,.2-.885,7.815,7.815,0,0,1,2.569-3.728,7.447,7.447,0,0,1,3.79-1.6,4.783,4.783,0,0,1,.855-.009,3.7,3.7,0,0,1,.776.145,2.543,2.543,0,0,1,1.207.762,2.35,2.35,0,0,1,.541,1.287,2.95,2.95,0,0,1,.017.37,3.406,3.406,0,0,1-.03.381,3.452,3.452,0,0,1-.2.767A6.674,6.674,0,0,1,867.264,616a10.5,10.5,0,0,1-3.759,1.9,4.931,4.931,0,0,1-.838.092h-.2Zm12.632-7.686c-.067,0-.131,0-.2-.008-.129-.007-.255-.021-.376-.039a2.513,2.513,0,0,1-1.216-.473,1.468,1.468,0,0,1-.526-1.032,3.173,3.173,0,0,1,.016-.744,5.586,5.586,0,0,1,.194-.886,7.788,7.788,0,0,1,2.51-3.74,7.253,7.253,0,0,1,3.73-1.612,4.68,4.68,0,0,1,.845-.012,3.663,3.663,0,0,1,.77.144,2.565,2.565,0,0,1,1.207.761,2.417,2.417,0,0,1,.557,1.291,2.973,2.973,0,0,1,.023.372,3.21,3.21,0,0,1-.023.382,3.438,3.438,0,0,1-.187.77,6.508,6.508,0,0,1-2.581,2.823,10.234,10.234,0,0,1-3.716,1.911,4.868,4.868,0,0,1-.833.093l-.117,0Zm12.412-7.728c-.065,0-.129,0-.193-.007-.127-.007-.251-.02-.372-.038a2.508,2.508,0,0,1-1.211-.472,1.515,1.515,0,0,1-.54-1.036,3.177,3.177,0,0,1,0-.747,5.6,5.6,0,0,1,.171-.891,7.7,7.7,0,0,1,2.365-3.767,6.813,6.813,0,0,1,3.591-1.639,4.3,4.3,0,0,1,.824-.015,3.441,3.441,0,0,1,.755.141,2.6,2.6,0,0,1,1.207.761,2.551,2.551,0,0,1,.594,1.3,3.022,3.022,0,0,1,.037.374,3.239,3.239,0,0,1-.008.384,3.41,3.41,0,0,1-.154.777,6.166,6.166,0,0,1-2.439,2.85,9.646,9.646,0,0,1-3.61,1.93,4.64,4.64,0,0,1-.82.1h-.2Zm11.71-7.834c-.124-.007-.246-.019-.363-.037a2.469,2.469,0,0,1-1.2-.47,1.623,1.623,0,0,1-.574-1.042,3.416,3.416,0,0,1-.037-.754,5.845,5.845,0,0,1,.121-.9,7.585,7.585,0,0,1,2.061-3.827,5.979,5.979,0,0,1,3.311-1.693,3.875,3.875,0,0,1,.781-.023,3.217,3.217,0,0,1,.727.136,2.7,2.7,0,0,1,1.206.761,2.9,2.9,0,0,1,.668,1.311,3.554,3.554,0,0,1,.086.77,3.507,3.507,0,0,1-.089.788,5.568,5.568,0,0,1-2.148,2.906,8.514,8.514,0,0,1-3.383,1.975,4.3,4.3,0,0,1-.791.1l-.191,0C899.345,594.75,899.282,594.748,899.221,594.744Z" fill="#666"/>
          <g transform="matrix(1, 0, 0, 1, 15.71, 18.82)" filter="url(#Holes)">
            <path id="Holes-3" data-name="Holes" d="M824.311,641c-.067,0-.131,0-.2-.007-.13-.008-.256-.022-.378-.04a2.5,2.5,0,0,1-1.219-.474,1.446,1.446,0,0,1-.518-1.031,3.151,3.151,0,0,1,.024-.743,5.473,5.473,0,0,1,.207-.884,7.812,7.812,0,0,1,2.59-3.723,7.521,7.521,0,0,1,3.815-1.6,4.918,4.918,0,0,1,.86-.008,3.667,3.667,0,0,1,.779.146,2.534,2.534,0,0,1,1.207.761,2.325,2.325,0,0,1,.534,1.286,2.96,2.96,0,0,1,.014.37,3.271,3.271,0,0,1-.24,1.146,6.744,6.744,0,0,1-2.665,2.806,10.562,10.562,0,0,1-3.774,1.9,4.936,4.936,0,0,1-.84.092h-.2Zm12.726-7.667-.2-.008c-.129-.008-.256-.021-.377-.04a2.5,2.5,0,0,1-1.219-.474,1.439,1.439,0,0,1-.518-1.031,3.1,3.1,0,0,1,.024-.742,5.541,5.541,0,0,1,.206-.884,7.818,7.818,0,0,1,2.591-3.724,7.525,7.525,0,0,1,3.814-1.6,4.919,4.919,0,0,1,.859-.008,3.673,3.673,0,0,1,.779.146,2.538,2.538,0,0,1,1.208.761,2.317,2.317,0,0,1,.533,1.286,2.794,2.794,0,0,1,.015.37,3.239,3.239,0,0,1-.033.38,3.374,3.374,0,0,1-.207.766,6.753,6.753,0,0,1-2.664,2.807,10.589,10.589,0,0,1-3.774,1.9,4.962,4.962,0,0,1-.84.092h-.2Zm12.723-7.668-.2-.008c-.13-.008-.256-.021-.378-.04a2.5,2.5,0,0,1-1.219-.474,1.443,1.443,0,0,1-.518-1.031,3.15,3.15,0,0,1,.024-.743,5.563,5.563,0,0,1,.206-.884,7.818,7.818,0,0,1,2.587-3.724,7.506,7.506,0,0,1,3.811-1.6,4.909,4.909,0,0,1,.859-.008,3.674,3.674,0,0,1,.778.146,2.528,2.528,0,0,1,1.207.761,2.327,2.327,0,0,1,.535,1.286,2.8,2.8,0,0,1,.014.37,3.22,3.22,0,0,1-.031.38,3.368,3.368,0,0,1-.206.766,6.727,6.727,0,0,1-2.66,2.808,10.552,10.552,0,0,1-3.771,1.9,4.935,4.935,0,0,1-.84.092l-.118,0Zm12.706-7.672-.2-.008c-.129-.008-.255-.021-.377-.039a2.518,2.518,0,0,1-1.218-.474,1.448,1.448,0,0,1-.52-1.031,3.143,3.143,0,0,1,.023-.743,5.549,5.549,0,0,1,.2-.885,7.815,7.815,0,0,1,2.569-3.728,7.447,7.447,0,0,1,3.79-1.6,4.783,4.783,0,0,1,.855-.009,3.7,3.7,0,0,1,.776.145,2.543,2.543,0,0,1,1.207.762,2.35,2.35,0,0,1,.541,1.287,2.95,2.95,0,0,1,.017.37,3.406,3.406,0,0,1-.03.381,3.452,3.452,0,0,1-.2.767A6.674,6.674,0,0,1,867.264,616a10.5,10.5,0,0,1-3.759,1.9,4.931,4.931,0,0,1-.838.092h-.2Zm12.632-7.686c-.067,0-.131,0-.2-.008-.129-.007-.255-.021-.376-.039a2.513,2.513,0,0,1-1.216-.473,1.468,1.468,0,0,1-.526-1.032,3.173,3.173,0,0,1,.016-.744,5.586,5.586,0,0,1,.194-.886,7.788,7.788,0,0,1,2.51-3.74,7.253,7.253,0,0,1,3.73-1.612,4.68,4.68,0,0,1,.845-.012,3.663,3.663,0,0,1,.77.144,2.565,2.565,0,0,1,1.207.761,2.417,2.417,0,0,1,.557,1.291,2.973,2.973,0,0,1,.023.372,3.21,3.21,0,0,1-.023.382,3.438,3.438,0,0,1-.187.77,6.508,6.508,0,0,1-2.581,2.823,10.234,10.234,0,0,1-3.716,1.911,4.868,4.868,0,0,1-.833.093l-.117,0Zm12.412-7.728c-.065,0-.129,0-.193-.007-.127-.007-.251-.02-.372-.038a2.508,2.508,0,0,1-1.211-.472,1.515,1.515,0,0,1-.54-1.036,3.177,3.177,0,0,1,0-.747,5.6,5.6,0,0,1,.171-.891,7.7,7.7,0,0,1,2.365-3.767,6.813,6.813,0,0,1,3.591-1.639,4.3,4.3,0,0,1,.824-.015,3.441,3.441,0,0,1,.755.141,2.6,2.6,0,0,1,1.207.761,2.551,2.551,0,0,1,.594,1.3,3.022,3.022,0,0,1,.037.374,3.239,3.239,0,0,1-.008.384,3.41,3.41,0,0,1-.154.777,6.166,6.166,0,0,1-2.439,2.85,9.646,9.646,0,0,1-3.61,1.93,4.64,4.64,0,0,1-.82.1h-.2Zm11.71-7.834c-.124-.007-.246-.019-.363-.037a2.469,2.469,0,0,1-1.2-.47,1.623,1.623,0,0,1-.574-1.042,3.416,3.416,0,0,1-.037-.754,5.845,5.845,0,0,1,.121-.9,7.585,7.585,0,0,1,2.061-3.827,5.979,5.979,0,0,1,3.311-1.693,3.875,3.875,0,0,1,.781-.023,3.217,3.217,0,0,1,.727.136,2.7,2.7,0,0,1,1.206.761,2.9,2.9,0,0,1,.668,1.311,3.554,3.554,0,0,1,.086.77,3.507,3.507,0,0,1-.089.788,5.568,5.568,0,0,1-2.148,2.906,8.514,8.514,0,0,1-3.383,1.975,4.3,4.3,0,0,1-.791.1l-.191,0C899.345,594.75,899.282,594.748,899.221,594.744Z" transform="translate(-15.71 -18.82)" fill="#fff"/>
          </g>
        </g>
      </g>
    </g>
    <g data-type="innerShadowGroup">
      <g id="Body_1-2" data-name="Body 1" fill="#ededed">
        <path d="M 559.567626953125 759.8524169921875 C 554.23486328125 759.8524169921875 548.8903198242188 759.3389892578125 543.6824951171875 758.3260498046875 C 538.4545288085938 757.3093872070312 533.3727416992188 755.7909545898438 528.5783081054688 753.8130493164062 C 523.701171875 751.8010864257812 519.1207275390625 749.3128662109375 514.964111328125 746.4172973632812 C 510.6875305175781 743.4381713867188 506.84375 740.015869140625 503.5397338867188 736.2455444335938 L 30.97285842895508 196.9872894287109 C 27.83230400085449 193.4035186767578 25.68085861206055 189.4871826171875 24.57841491699219 185.3471832275391 C 23.51708030700684 181.3612976074219 23.44263648986816 177.2350769042969 24.35730361938477 173.0830688476562 C 24.98752593994141 170.2220764160156 26.08841514587402 167.36962890625 27.62919235229492 164.6048431396484 C 29.18430328369141 161.8144073486328 31.18963623046875 159.1099548339844 33.58930206298828 156.5665130615234 C 36.03919219970703 153.9698486328125 38.9069709777832 151.5342864990234 42.11296844482422 149.3276214599609 C 45.41763687133789 147.0530700683594 49.10086059570312 145.0091857910156 53.0601921081543 143.2526245117188 L 316.9741821289062 26.16695976257324 C 326.3360900878906 22.01351547241211 337.1906433105469 19.81807136535645 348.3644104003906 19.81807136535645 C 356.8966369628906 19.81807136535645 365.3721923828125 21.13162612915039 372.874755859375 23.61651611328125 C 376.6869812011719 24.87929344177246 380.248291015625 26.44051551818848 383.4598693847656 28.25684928894043 C 386.7540893554688 30.11995887756348 389.6919555664062 32.25896072387695 392.1917419433594 34.61418151855469 L 892.197998046875 505.7171936035156 C 898.02099609375 511.20361328125 902.3391723632812 517.3229370117188 905.0325317382812 523.9050903320312 C 906.3236083984375 527.0601806640625 907.2233276367188 530.3037109375 907.7066650390625 533.545654296875 C 908.185546875 536.757080078125 908.2596435546875 539.991943359375 907.9269409179688 543.160400390625 C 907.2815551757812 549.3087158203125 905.1541748046875 555.1171875 901.6040649414062 560.4244995117188 C 897.9083862304688 565.9494018554688 892.8074951171875 570.71337890625 886.4431762695312 574.5844116210938 L 599.6686401367188 749.0064086914062 C 593.779541015625 752.5881958007812 587.2821044921875 755.336181640625 580.3568725585938 757.173828125 C 573.6585083007812 758.951171875 566.6639404296875 759.8524169921875 559.567626953125 759.8524169921875 Z" stroke="none"/>
        <path d="M 348.3644409179688 20.81805419921875 C 337.3294067382812 20.81805419921875 326.6150512695312 22.9837646484375 317.3797607421875 27.0809326171875 L 53.46575927734375 144.1666259765625 C 49.562744140625 145.898193359375 45.933837890625 147.9117431640625 42.67999267578125 150.1514282226562 C 39.5321044921875 152.3180541992188 36.71820068359375 154.707275390625 34.316650390625 157.2526245117188 C 31.9737548828125 159.7359619140625 30.01763916015625 162.3734130859375 28.50274658203125 165.0916137695312 C 27.00927734375 167.7713012695312 25.94317626953125 170.5322875976562 25.3338623046875 173.298095703125 C 24.4539794921875 177.2925415039062 24.52484130859375 181.2598266601562 25.54473876953125 185.08984375 C 26.607177734375 189.0799560546875 28.6865234375 192.8612060546875 31.7247314453125 196.3283081054688 L 504.2918701171875 735.5864868164062 C 507.5425109863281 739.2959594726562 511.3254089355469 742.663818359375 515.53564453125 745.5967407226562 C 519.6329345703125 748.450927734375 524.1494140625 750.904296875 528.9595947265625 752.8886108398438 C 533.6927490234375 754.8411865234375 538.7105102539062 756.3403930664062 543.8734130859375 757.3444213867188 C 549.0184326171875 758.3450927734375 554.2987060546875 758.8524169921875 559.5675048828125 758.8524169921875 C 566.577392578125 758.8524169921875 573.485595703125 757.96240234375 580.100341796875 756.2071533203125 C 586.9329833984375 754.3941650390625 593.3418579101562 751.6839599609375 599.14892578125 748.1519775390625 L 885.9235229492188 573.72998046875 C 898.1770629882812 566.277099609375 905.63818359375 555.383544921875 906.9324340820312 543.0559692382812 C 907.2562866210938 539.9713134765625 907.1839599609375 536.8211669921875 906.7176513671875 533.6930541992188 C 906.24609375 530.5303955078125 905.3677368164062 527.36474609375 904.1070556640625 524.2838134765625 C 901.4680786132812 517.834716796875 897.2305297851562 511.8328552246094 891.51220703125 506.445068359375 L 391.5059814453125 35.342041015625 C 389.0646362304688 33.0418701171875 386.1918334960938 30.95086669921875 382.967529296875 29.1273193359375 C 379.8124389648438 27.34283447265625 376.3109741210938 25.80816650390625 372.560302734375 24.56585693359375 C 365.1578369140625 22.11407470703125 356.7910766601562 20.81805419921875 348.3644409179688 20.81805419921875 M 348.3643798828125 18.818115234375 C 365.642333984375 18.818115234375 382.447998046875 24.059814453125 392.8775024414062 33.88641357421875 L 892.8837280273438 504.9894104003906 C 916.5618896484375 527.298828125 914.167724609375 558.8922119140625 886.962890625 575.438720703125 L 600.1882934570312 749.8607177734375 C 587.9832763671875 757.2840576171875 573.7335815429688 760.8524780273438 559.5675659179688 760.8524780273438 C 537.9273681640625 760.8524780273438 516.479248046875 752.5284423828125 502.7876281738281 736.9046020507812 L 30.22064208984375 197.6464233398438 C 14.33477783203125 179.5184326171875 24.57110595703125 154.7977294921875 52.6546630859375 142.3385009765625 L 316.5686645507812 25.25286865234375 C 326.3613891601562 20.90826416015625 337.4581298828125 18.818115234375 348.3643798828125 18.818115234375 Z" stroke="none"/>
      </g>
      <g transform="matrix(1, 0, 0, 1, 15.71, 18.82)" filter="url(#Body_1)">
        <g id="Body_1-3" data-name="Body 1" transform="translate(-15.71 -18.82)" fill="#fff">
          <path d="M 559.567626953125 759.8524169921875 C 554.23486328125 759.8524169921875 548.8903198242188 759.3389892578125 543.6824951171875 758.3260498046875 C 538.4545288085938 757.3093872070312 533.3727416992188 755.7909545898438 528.5783081054688 753.8130493164062 C 523.701171875 751.8010864257812 519.1207275390625 749.3128662109375 514.964111328125 746.4172973632812 C 510.6875305175781 743.4381713867188 506.84375 740.015869140625 503.5397338867188 736.2455444335938 L 30.97285842895508 196.9872894287109 C 27.83230400085449 193.4035186767578 25.68085861206055 189.4871826171875 24.57841491699219 185.3471832275391 C 23.51708030700684 181.3612976074219 23.44263648986816 177.2350769042969 24.35730361938477 173.0830688476562 C 24.98752593994141 170.2220764160156 26.08841514587402 167.36962890625 27.62919235229492 164.6048431396484 C 29.18430328369141 161.8144073486328 31.18963623046875 159.1099548339844 33.58930206298828 156.5665130615234 C 36.03919219970703 153.9698486328125 38.9069709777832 151.5342864990234 42.11296844482422 149.3276214599609 C 45.41763687133789 147.0530700683594 49.10086059570312 145.0091857910156 53.0601921081543 143.2526245117188 L 316.9741821289062 26.16695976257324 C 326.3360900878906 22.01351547241211 337.1906433105469 19.81807136535645 348.3644104003906 19.81807136535645 C 356.8966369628906 19.81807136535645 365.3721923828125 21.13162612915039 372.874755859375 23.61651611328125 C 376.6869812011719 24.87929344177246 380.248291015625 26.44051551818848 383.4598693847656 28.25684928894043 C 386.7540893554688 30.11995887756348 389.6919555664062 32.25896072387695 392.1917419433594 34.61418151855469 L 892.197998046875 505.7171936035156 C 898.02099609375 511.20361328125 902.3391723632812 517.3229370117188 905.0325317382812 523.9050903320312 C 906.3236083984375 527.0601806640625 907.2233276367188 530.3037109375 907.7066650390625 533.545654296875 C 908.185546875 536.757080078125 908.2596435546875 539.991943359375 907.9269409179688 543.160400390625 C 907.2815551757812 549.3087158203125 905.1541748046875 555.1171875 901.6040649414062 560.4244995117188 C 897.9083862304688 565.9494018554688 892.8074951171875 570.71337890625 886.4431762695312 574.5844116210938 L 599.6686401367188 749.0064086914062 C 593.779541015625 752.5881958007812 587.2821044921875 755.336181640625 580.3568725585938 757.173828125 C 573.6585083007812 758.951171875 566.6639404296875 759.8524169921875 559.567626953125 759.8524169921875 Z" stroke="none"/>
          <path d="M 348.3644409179688 20.81805419921875 C 337.3294067382812 20.81805419921875 326.6150512695312 22.9837646484375 317.3797607421875 27.0809326171875 L 53.46575927734375 144.1666259765625 C 49.562744140625 145.898193359375 45.933837890625 147.9117431640625 42.67999267578125 150.1514282226562 C 39.5321044921875 152.3180541992188 36.71820068359375 154.707275390625 34.316650390625 157.2526245117188 C 31.9737548828125 159.7359619140625 30.01763916015625 162.3734130859375 28.50274658203125 165.0916137695312 C 27.00927734375 167.7713012695312 25.94317626953125 170.5322875976562 25.3338623046875 173.298095703125 C 24.4539794921875 177.2925415039062 24.52484130859375 181.2598266601562 25.54473876953125 185.08984375 C 26.607177734375 189.0799560546875 28.6865234375 192.8612060546875 31.7247314453125 196.3283081054688 L 504.2918701171875 735.5864868164062 C 507.5425109863281 739.2959594726562 511.3254089355469 742.663818359375 515.53564453125 745.5967407226562 C 519.6329345703125 748.450927734375 524.1494140625 750.904296875 528.9595947265625 752.8886108398438 C 533.6927490234375 754.8411865234375 538.7105102539062 756.3403930664062 543.8734130859375 757.3444213867188 C 549.0184326171875 758.3450927734375 554.2987060546875 758.8524169921875 559.5675048828125 758.8524169921875 C 566.577392578125 758.8524169921875 573.485595703125 757.96240234375 580.100341796875 756.2071533203125 C 586.9329833984375 754.3941650390625 593.3418579101562 751.6839599609375 599.14892578125 748.1519775390625 L 885.9235229492188 573.72998046875 C 898.1770629882812 566.277099609375 905.63818359375 555.383544921875 906.9324340820312 543.0559692382812 C 907.2562866210938 539.9713134765625 907.1839599609375 536.8211669921875 906.7176513671875 533.6930541992188 C 906.24609375 530.5303955078125 905.3677368164062 527.36474609375 904.1070556640625 524.2838134765625 C 901.4680786132812 517.834716796875 897.2305297851562 511.8328552246094 891.51220703125 506.445068359375 L 391.5059814453125 35.342041015625 C 389.0646362304688 33.0418701171875 386.1918334960938 30.95086669921875 382.967529296875 29.1273193359375 C 379.8124389648438 27.34283447265625 376.3109741210938 25.80816650390625 372.560302734375 24.56585693359375 C 365.1578369140625 22.11407470703125 356.7910766601562 20.81805419921875 348.3644409179688 20.81805419921875 M 348.3643798828125 18.818115234375 C 365.642333984375 18.818115234375 382.447998046875 24.059814453125 392.8775024414062 33.88641357421875 L 892.8837280273438 504.9894104003906 C 916.5618896484375 527.298828125 914.167724609375 558.8922119140625 886.962890625 575.438720703125 L 600.1882934570312 749.8607177734375 C 587.9832763671875 757.2840576171875 573.7335815429688 760.8524780273438 559.5675659179688 760.8524780273438 C 537.9273681640625 760.8524780273438 516.479248046875 752.5284423828125 502.7876281738281 736.9046020507812 L 30.22064208984375 197.6464233398438 C 14.33477783203125 179.5184326171875 24.57110595703125 154.7977294921875 52.6546630859375 142.3385009765625 L 316.5686645507812 25.25286865234375 C 326.3613891601562 20.90826416015625 337.4581298828125 18.818115234375 348.3643798828125 18.818115234375 Z" stroke="none"/>
        </g>
      </g>
      <g id="Body_1-4" data-name="Body 1" fill="none" stroke-linejoin="round">
        <path d="M 559.567626953125 759.8524169921875 C 554.23486328125 759.8524169921875 548.8903198242188 759.3389892578125 543.6824951171875 758.3260498046875 C 538.4545288085938 757.3093872070312 533.3727416992188 755.7909545898438 528.5783081054688 753.8130493164062 C 523.701171875 751.8010864257812 519.1207275390625 749.3128662109375 514.964111328125 746.4172973632812 C 510.6875305175781 743.4381713867188 506.84375 740.015869140625 503.5397338867188 736.2455444335938 L 30.97285842895508 196.9872894287109 C 27.83230400085449 193.4035186767578 25.68085861206055 189.4871826171875 24.57841491699219 185.3471832275391 C 23.51708030700684 181.3612976074219 23.44263648986816 177.2350769042969 24.35730361938477 173.0830688476562 C 24.98752593994141 170.2220764160156 26.08841514587402 167.36962890625 27.62919235229492 164.6048431396484 C 29.18430328369141 161.8144073486328 31.18963623046875 159.1099548339844 33.58930206298828 156.5665130615234 C 36.03919219970703 153.9698486328125 38.9069709777832 151.5342864990234 42.11296844482422 149.3276214599609 C 45.41763687133789 147.0530700683594 49.10086059570312 145.0091857910156 53.0601921081543 143.2526245117188 L 316.9741821289062 26.16695976257324 C 326.3360900878906 22.01351547241211 337.1906433105469 19.81807136535645 348.3644104003906 19.81807136535645 C 356.8966369628906 19.81807136535645 365.3721923828125 21.13162612915039 372.874755859375 23.61651611328125 C 376.6869812011719 24.87929344177246 380.248291015625 26.44051551818848 383.4598693847656 28.25684928894043 C 386.7540893554688 30.11995887756348 389.6919555664062 32.25896072387695 392.1917419433594 34.61418151855469 L 892.197998046875 505.7171936035156 C 898.02099609375 511.20361328125 902.3391723632812 517.3229370117188 905.0325317382812 523.9050903320312 C 906.3236083984375 527.0601806640625 907.2233276367188 530.3037109375 907.7066650390625 533.545654296875 C 908.185546875 536.757080078125 908.2596435546875 539.991943359375 907.9269409179688 543.160400390625 C 907.2815551757812 549.3087158203125 905.1541748046875 555.1171875 901.6040649414062 560.4244995117188 C 897.9083862304688 565.9494018554688 892.8074951171875 570.71337890625 886.4431762695312 574.5844116210938 L 599.6686401367188 749.0064086914062 C 593.779541015625 752.5881958007812 587.2821044921875 755.336181640625 580.3568725585938 757.173828125 C 573.6585083007812 758.951171875 566.6639404296875 759.8524169921875 559.567626953125 759.8524169921875 Z" stroke="none"/>
        <path d="M 348.3644409179688 20.81805419921875 C 337.3294067382812 20.81805419921875 326.6150512695312 22.9837646484375 317.3797607421875 27.0809326171875 L 53.46575927734375 144.1666259765625 C 49.562744140625 145.898193359375 45.933837890625 147.9117431640625 42.67999267578125 150.1514282226562 C 39.5321044921875 152.3180541992188 36.71820068359375 154.707275390625 34.316650390625 157.2526245117188 C 31.9737548828125 159.7359619140625 30.01763916015625 162.3734130859375 28.50274658203125 165.0916137695312 C 27.00927734375 167.7713012695312 25.94317626953125 170.5322875976562 25.3338623046875 173.298095703125 C 24.4539794921875 177.2925415039062 24.52484130859375 181.2598266601562 25.54473876953125 185.08984375 C 26.607177734375 189.0799560546875 28.6865234375 192.8612060546875 31.7247314453125 196.3283081054688 L 504.2918701171875 735.5864868164062 C 507.5425109863281 739.2959594726562 511.3254089355469 742.663818359375 515.53564453125 745.5967407226562 C 519.6329345703125 748.450927734375 524.1494140625 750.904296875 528.9595947265625 752.8886108398438 C 533.6927490234375 754.8411865234375 538.7105102539062 756.3403930664062 543.8734130859375 757.3444213867188 C 549.0184326171875 758.3450927734375 554.2987060546875 758.8524169921875 559.5675048828125 758.8524169921875 C 566.577392578125 758.8524169921875 573.485595703125 757.96240234375 580.100341796875 756.2071533203125 C 586.9329833984375 754.3941650390625 593.3418579101562 751.6839599609375 599.14892578125 748.1519775390625 L 885.9235229492188 573.72998046875 C 898.1770629882812 566.277099609375 905.63818359375 555.383544921875 906.9324340820312 543.0559692382812 C 907.2562866210938 539.9713134765625 907.1839599609375 536.8211669921875 906.7176513671875 533.6930541992188 C 906.24609375 530.5303955078125 905.3677368164062 527.36474609375 904.1070556640625 524.2838134765625 C 901.4680786132812 517.834716796875 897.2305297851562 511.8328552246094 891.51220703125 506.445068359375 L 391.5059814453125 35.342041015625 C 389.0646362304688 33.0418701171875 386.1918334960938 30.95086669921875 382.967529296875 29.1273193359375 C 379.8124389648438 27.34283447265625 376.3109741210938 25.80816650390625 372.560302734375 24.56585693359375 C 365.1578369140625 22.11407470703125 356.7910766601562 20.81805419921875 348.3644409179688 20.81805419921875 M 348.3643798828125 18.818115234375 C 365.642333984375 18.818115234375 382.447998046875 24.059814453125 392.8775024414062 33.88641357421875 L 892.8837280273438 504.9894104003906 C 916.5618896484375 527.298828125 914.167724609375 558.8922119140625 886.962890625 575.438720703125 L 600.1882934570312 749.8607177734375 C 587.9832763671875 757.2840576171875 573.7335815429688 760.8524780273438 559.5675659179688 760.8524780273438 C 537.9273681640625 760.8524780273438 516.479248046875 752.5284423828125 502.7876281738281 736.9046020507812 L 30.22064208984375 197.6464233398438 C 14.33477783203125 179.5184326171875 24.57110595703125 154.7977294921875 52.6546630859375 142.3385009765625 L 316.5686645507812 25.25286865234375 C 326.3613891601562 20.90826416015625 337.4581298828125 18.818115234375 348.3643798828125 18.818115234375 Z" stroke="none" fill="#f0f0f0"/>
      </g>
    </g>
    <g id="Button-7" data-name="Button">
      <path id="Button-8" data-name="Button" d="M702.475,644.742a53.931,53.931,0,0,1-6.083-.347,51.8,51.8,0,0,1-16.119-4.5,44.242,44.242,0,0,1-12.59-8.706,34.358,34.358,0,0,1-7.827-11.676,27.432,27.432,0,0,1,2.307-25.067,33.188,33.188,0,0,1,8.779-9.19c7.335-5.282,16.923-8.191,27-8.191a53.967,53.967,0,0,1,6.085.348,51.8,51.8,0,0,1,16.119,4.5,44.24,44.24,0,0,1,12.59,8.706,34.359,34.359,0,0,1,7.827,11.676,27.431,27.431,0,0,1-2.308,25.067,33.191,33.191,0,0,1-8.78,9.189C722.138,641.832,712.55,644.741,702.475,644.742ZM698.5,581h0a41.058,41.058,0,0,0-23.9,7.262,29.405,29.405,0,0,0-7.773,8.146,24.34,24.34,0,0,0-2.043,22.22,30.458,30.458,0,0,0,6.929,10.35,39.164,39.164,0,0,0,11.146,7.717,45.81,45.81,0,0,0,14.27,3.992,47.793,47.793,0,0,0,5.387.308,41.051,41.051,0,0,0,23.9-7.261,29.4,29.4,0,0,0,7.772-8.146,24.341,24.341,0,0,0,2.043-22.22,30.458,30.458,0,0,0-6.929-10.35,39.161,39.161,0,0,0-11.146-7.717,45.812,45.812,0,0,0-14.27-3.992A47.672,47.672,0,0,0,698.5,581Z" fill="#f4f4f5"/>
      <path id="Gradient_Overlay" data-name="Gradient Overlay" d="M696.391,644.395c-23.3-2.655-40.474-19.8-38.366-38.3s22.7-31.341,46-28.686,40.473,19.8,38.365,38.3c-1.922,16.867-19.218,29.033-39.916,29.034A53.7,53.7,0,0,1,696.391,644.395Z" fill="#fff" opacity="0.22" style="mix-blend-mode: multiply;isolation: isolate"/>
    </g>
    <path id="Line" d="M33,200l9,9a96.373,96.373,0,0,0-5.434,10.531C34.721,223.914,34,232,34,232l-9-12a71.014,71.014,0,0,1,2.752-9.684A96.7,96.7,0,0,1,33,200Z" opacity="0.071"/>
    <path id="Line-2" data-name="Line" d="M488,720l8.956,9.357s-4.322,2.2-7.956,8.643c-3.836,6.807-4,15-4,15l-9-11s-.116-8.007,4-14C484.607,721.293,488,720,488,720Z" opacity="0.071"/>
    <g id="Buttons_Group" data-name="Buttons Group">
      <path id="Shape" d="M97.931,297.049a4.852,4.852,0,0,1,6.873.915l65.176,75.011a5.027,5.027,0,0,1-.9,6.977,4.852,4.852,0,0,1-6.873-.915L97.03,304.026A5.027,5.027,0,0,1,97.931,297.049Z" fill="#bbbbbd" opacity="0.302"/>
      <g id="Button_3" data-name="Button 3">
        <g transform="matrix(1, 0, 0, 1, 15.71, 18.82)" filter="url(#Button)">
          <path id="Button-9" data-name="Button" d="M136.022,338.819a3.724,3.724,0,0,1,5.286.706l33.877,39.992a3.888,3.888,0,0,1-.693,5.384,3.724,3.724,0,0,1-5.286-.706L135.329,344.2A3.888,3.888,0,0,1,136.022,338.819Z" transform="translate(-15.71 -18.82)" fill="#c0c0c5"/>
        </g>
        <g data-type="innerShadowGroup">
          <path id="Button-10" data-name="Button" d="M133.509,340.1a3.724,3.724,0,0,1,5.286.706L174.671,381.8a3.888,3.888,0,0,1-.693,5.384,3.724,3.724,0,0,1-5.286-.706l-35.877-40.992A3.888,3.888,0,0,1,133.509,340.1Z" fill="#e4e4e9"/>
          <g transform="matrix(1, 0, 0, 1, 15.71, 18.82)" filter="url(#Button-2)">
            <path id="Button-11" data-name="Button" d="M133.509,340.1a3.724,3.724,0,0,1,5.286.706L174.671,381.8a3.888,3.888,0,0,1-.693,5.384,3.724,3.724,0,0,1-5.286-.706l-35.877-40.992A3.888,3.888,0,0,1,133.509,340.1Z" transform="translate(-15.71 -18.82)" fill="#fff"/>
          </g>
        </g>
      </g>
      <g id="Button_2" data-name="Button 2">
        <g transform="matrix(1, 0, 0, 1, 15.71, 18.82)" filter="url(#Button-3)">
          <path id="Button-12" data-name="Button" d="M89.022,286.819a3.724,3.724,0,0,1,5.286.706l33.877,38.992a3.888,3.888,0,0,1-.693,5.384,3.724,3.724,0,0,1-5.286-.706L88.329,292.2A3.888,3.888,0,0,1,89.022,286.819Z" transform="translate(-15.71 -18.82)" fill="#c0c0c5"/>
        </g>
        <g data-type="innerShadowGroup">
          <path id="Button-13" data-name="Button" d="M88.509,289.1a3.724,3.724,0,0,1,5.286.706L127.671,328.8a3.888,3.888,0,0,1-.693,5.384,3.724,3.724,0,0,1-5.286-.706L87.816,294.483A3.888,3.888,0,0,1,88.509,289.1Z" fill="#e4e4e9"/>
          <g transform="matrix(1, 0, 0, 1, 15.71, 18.82)" filter="url(#Button-4)">
            <path id="Button-14" data-name="Button" d="M88.509,289.1a3.724,3.724,0,0,1,5.286.706L127.671,328.8a3.888,3.888,0,0,1-.693,5.384,3.724,3.724,0,0,1-5.286-.706L87.816,294.483A3.888,3.888,0,0,1,88.509,289.1Z" transform="translate(-15.71 -18.82)" fill="#fff"/>
          </g>
        </g>
      </g>
      <g id="Button_1" data-name="Button 1">
        <g transform="matrix(1, 0, 0, 1, 15.71, 18.82)" filter="url(#Button-5)">
          <path id="Button-15" data-name="Button" d="M48.763,238.64a3,3,0,0,1,4.207.552l15.819,17.962a3,3,0,0,1-4.758,3.655L48.212,242.846A3,3,0,0,1,48.763,238.64Z" transform="translate(-15.71 -18.82)" fill="#c0c0c5"/>
        </g>
        <g data-type="innerShadowGroup">
          <path id="Button-16" data-name="Button" d="M46.763,239.64a3,3,0,0,1,4.207.551l15.819,17.962a3,3,0,1,1-4.758,3.655L46.212,243.846A3,3,0,0,1,46.763,239.64Z" fill="#e4e4e9"/>
          <g transform="matrix(1, 0, 0, 1, 15.71, 18.82)" filter="url(#Button-6)">
            <path id="Button-17" data-name="Button" d="M46.763,239.64a3,3,0,0,1,4.207.551l15.819,17.962a3,3,0,1,1-4.758,3.655L46.212,243.846A3,3,0,0,1,46.763,239.64Z" transform="translate(-15.71 -18.82)" fill="#fff"/>
          </g>
        </g>
      </g>
    </g>
    <g data-type="innerShadowGroup">
      <path id="Hole-2" data-name="Hole" d="M649.6,738.269a7.719,7.719,0,0,1,3.83-1.907,5.01,5.01,0,0,1,.89-.065,3.846,3.846,0,0,1,.817.1,2.656,2.656,0,0,1,1.308.711,2.442,2.442,0,0,1,.649,1.3,3.032,3.032,0,0,1,.043.383,3.276,3.276,0,0,1-.005.4,3.529,3.529,0,0,1-.157.809,6.921,6.921,0,0,1-2.548,3.089,10.837,10.837,0,0,1-3.765,2.22,5.119,5.119,0,0,1-.862.151q-.105.009-.208.014t-.2,0c-.135,0-.266-.005-.394-.016a2.621,2.621,0,0,1-1.3-.413,1.52,1.52,0,0,1-.614-1.036,3.266,3.266,0,0,1-.031-.773,5.714,5.714,0,0,1,.147-.931,8.039,8.039,0,0,1,2.4-4.036Z" fill="#666"/>
      <g transform="matrix(1, 0, 0, 1, 15.71, 18.82)" filter="url(#Hole)">
        <path id="Hole-3" data-name="Hole" d="M649.6,738.269a7.719,7.719,0,0,1,3.83-1.907,5.01,5.01,0,0,1,.89-.065,3.846,3.846,0,0,1,.817.1,2.656,2.656,0,0,1,1.308.711,2.442,2.442,0,0,1,.649,1.3,3.032,3.032,0,0,1,.043.383,3.276,3.276,0,0,1-.005.4,3.529,3.529,0,0,1-.157.809,6.921,6.921,0,0,1-2.548,3.089,10.837,10.837,0,0,1-3.765,2.22,5.119,5.119,0,0,1-.862.151q-.105.009-.208.014t-.2,0c-.135,0-.266-.005-.394-.016a2.621,2.621,0,0,1-1.3-.413,1.52,1.52,0,0,1-.614-1.036,3.266,3.266,0,0,1-.031-.773,5.714,5.714,0,0,1,.147-.931,8.039,8.039,0,0,1,2.4-4.036Z" transform="translate(-15.71 -18.82)" fill="#fff"/>
      </g>
      <path id="Hole-4" data-name="Hole" d="M649.6,738.269a7.719,7.719,0,0,1,3.83-1.907,5.01,5.01,0,0,1,.89-.065,3.846,3.846,0,0,1,.817.1,2.656,2.656,0,0,1,1.308.711,2.442,2.442,0,0,1,.649,1.3,3.032,3.032,0,0,1,.043.383,3.276,3.276,0,0,1-.005.4,3.529,3.529,0,0,1-.157.809,6.921,6.921,0,0,1-2.548,3.089,10.837,10.837,0,0,1-3.765,2.22,5.119,5.119,0,0,1-.862.151q-.105.009-.208.014t-.2,0c-.135,0-.266-.005-.394-.016a2.621,2.621,0,0,1-1.3-.413,1.52,1.52,0,0,1-.614-1.036,3.266,3.266,0,0,1-.031-.773,5.714,5.714,0,0,1,.147-.931,8.039,8.039,0,0,1,2.4-4.036Z" fill="none" stroke="rgba(160,160,160,0.48)" stroke-linejoin="round" stroke-width="1"/>
    </g>
    <g id="Screen">
      <g id="Screen-2" data-name="Screen" transform="matrix(0.908, -0.419, 0.419, 0.908, 66, 208.733)">
        <g id="Passcode">
          <rect id="BG" width="361.463" height="617.118" fill="#f4f4f5"/>
          <g id="Numbers">
            <text id="_0" data-name="0" transform="translate(181.621 477.602)" fill="#26272d" font-size="27" font-family="AvenirNext-Regular, Avenir Next" letter-spacing="0.05em"><tspan x="-7.83" y="0">0</tspan></text>
            <path id="back_icon" data-name="back  icon" d="M284.31,468.871h-.225v-.21l-.38-.354.259-.245-.259-.245.38-.354v-.212h.228l5.844-5.447,1.211,1.145-4.616,4.3h11.681v1.619H286.75l4.619,4.3-1.211,1.145Z" fill="#1c1c1c"/>
            <text id="_7" data-name="7" transform="translate(71.76 406.929)" fill="#26272d" font-size="27" font-family="AvenirNext-Regular, Avenir Next" letter-spacing="0.05em"><tspan x="-7.83" y="0">7</tspan></text>
            <text id="_8" data-name="8" transform="translate(181.621 406.929)" fill="#26272d" font-size="27" font-family="AvenirNext-Regular, Avenir Next" letter-spacing="0.05em"><tspan x="-7.83" y="0">8</tspan></text>
            <text id="_9" data-name="9" transform="translate(291.482 406.929)" fill="#26272d" font-size="27" font-family="AvenirNext-Regular, Avenir Next" letter-spacing="0.05em"><tspan x="-7.83" y="0">9</tspan></text>
            <text id="_4" data-name="4" transform="translate(71.76 341.691)" fill="#26272d" font-size="27" font-family="AvenirNext-Regular, Avenir Next" letter-spacing="0.05em"><tspan x="-7.83" y="0">4</tspan></text>
            <text id="_5" data-name="5" transform="translate(181.621 341.691)" fill="#26272d" font-size="27" font-family="AvenirNext-Regular, Avenir Next" letter-spacing="0.05em"><tspan x="-7.83" y="0">5</tspan></text>
            <text id="_6" data-name="6" transform="translate(290.915 341.691)" fill="#26272d" font-size="27" font-family="AvenirNext-Regular, Avenir Next" letter-spacing="0.05em"><tspan x="-7.83" y="0">6</tspan></text>
            <text id="_1" data-name="1" transform="translate(74.026 276.454)" fill="#26272d" font-size="27" font-family="AvenirNext-Regular, Avenir Next" letter-spacing="0.05em"><tspan x="-7.83" y="0">1</tspan></text>
            <text id="_2" data-name="2" transform="translate(172.985 276.454)" fill="#26272d" font-size="27" font-family="AvenirNext-Regular, Avenir Next" letter-spacing="0.05em"><tspan x="0" y="0">2</tspan></text>
            <text id="_3" data-name="3" transform="translate(291.482 276.454)" fill="#26272d" font-size="27" font-family="AvenirNext-Regular, Avenir Next" letter-spacing="0.05em"><tspan x="-7.83" y="0">3</tspan></text>
          </g>
          <g id="pin">
            <ellipse id="Pins" cx="5.099" cy="4.894" rx="5.099" ry="4.894" transform="translate(126.849 151.666)" fill="#26272d"/>
            <g id="Pins-2" data-name="Pins" transform="translate(159.694 151.666)" fill="none" stroke="#b9bed1" stroke-width="0.944">
              <ellipse cx="5.099" cy="4.894" rx="5.099" ry="4.894" stroke="none"/>
              <ellipse cx="5.099" cy="4.894" rx="4.627" ry="4.422" fill="none"/>
            </g>
            <g id="Pins-3" data-name="Pins" transform="translate(192.539 151.666)" fill="none" stroke="#b9bed1" stroke-width="0.944">
              <ellipse cx="5.099" cy="4.894" rx="5.099" ry="4.894" stroke="none"/>
              <ellipse cx="5.099" cy="4.894" rx="4.627" ry="4.422" fill="none"/>
            </g>
            <g id="Pins-4" data-name="Pins" transform="translate(225.384 151.666)" fill="none" stroke="#b9bed1" stroke-width="0.944">
              <ellipse cx="5.099" cy="4.894" rx="5.099" ry="4.894" stroke="none"/>
              <ellipse cx="5.099" cy="4.894" rx="4.627" ry="4.422" fill="none"/>
            </g>
          </g>
          <g id="Navigation_Bar" data-name="Navigation Bar">
            <path id="Help_Icom" data-name="Help Icom" d="M324.687,54.18a9.627,9.627,0,0,1-3.061-1.981,9.2,9.2,0,0,1-2.063-2.938,8.929,8.929,0,0,1,0-7.2,9.2,9.2,0,0,1,2.063-2.938,9.626,9.626,0,0,1,3.061-1.981,10.031,10.031,0,0,1,7.5,0,9.626,9.626,0,0,1,3.061,1.981,9.2,9.2,0,0,1,2.063,2.938,8.929,8.929,0,0,1,0,7.2,9.2,9.2,0,0,1-2.063,2.938,9.627,9.627,0,0,1-3.061,1.981,10.031,10.031,0,0,1-7.5,0ZM322.43,39.9a7.93,7.93,0,0,0,0,11.534,8.741,8.741,0,0,0,12.009,0,7.929,7.929,0,0,0,0-11.534,8.742,8.742,0,0,0-12.009,0Zm4.786,10.589a.992.992,0,0,1-.252-.723.856.856,0,0,1,.976-.962.99.99,0,0,1,.73.251.961.961,0,0,1,.252.71.988.988,0,0,1-.255.717,1.138,1.138,0,0,1-1.45.006Zm.02-2.755v-.408a2.326,2.326,0,0,1,.265-1.166,3.374,3.374,0,0,1,.929-.962,5.059,5.059,0,0,0,1.019-.93,1.358,1.358,0,0,0,.229-.79.976.976,0,0,0-.371-.822,1.722,1.722,0,0,0-1.069-.286,3.8,3.8,0,0,0-1.168.172,8.462,8.462,0,0,0-1.049.414l-.557-1.122a6.038,6.038,0,0,1,2.887-.72,3.21,3.21,0,0,1,2.064.612,2.046,2.046,0,0,1,.763,1.688,2.324,2.324,0,0,1-.146.851,2.423,2.423,0,0,1-.442.71,7.033,7.033,0,0,1-1.018.879,3.84,3.84,0,0,0-.826.771,1.436,1.436,0,0,0-.209.822v.287Z" fill="#b9bed1"/>
            <text id="Passcode-2" data-name="Passcode" transform="translate(181.01 51.129)" fill="#26272d" font-size="18" font-family="AvenirNext-Medium, Avenir Next" font-weight="500" letter-spacing="0.01em"><tspan x="-39.159" y="0">Passcode</tspan></text>
            <path id="Menu_Icon" data-name="Menu Icon" d="M26.059,51.65V50.017H43.048V51.65Zm0-4.895V45.123H43.048v1.633Zm0-4.895V40.228H43.048v1.633Z" fill="#26272d"/>
          </g>
          <g id="Button-18" data-name="Button">
            <text id="Enter" transform="translate(181.394 566.418)" fill="#26272d" font-size="16" font-family="AvenirNext-Medium, Avenir Next" font-weight="500" letter-spacing="0.01em"><tspan x="-19.896" y="0">Enter</tspan></text>
          </g>
        </g>
      </g>
      <g id="Stroke_Effect" data-name="Stroke Effect" fill="none" stroke-linejoin="round" opacity="0.07">
        <path d="M66,208.733,394.155,57.177,652.9,617.43,324.749,768.986Z" stroke="none"/>
        <path d="M 394.1549987792969 57.177001953125 L 65.99969482421875 208.7333984375 L 324.7488098144531 768.9861450195312 L 652.904052734375 617.4296875 L 394.1549987792969 57.177001953125 M 394.1543884277344 56.17681884765625 C 394.5322875976562 56.17681884765625 394.8939514160156 56.39215087890625 395.0628051757812 56.75775146484375 L 653.8118896484375 617.0103759765625 C 654.0435180664062 617.51171875 653.82470703125 618.10595703125 653.3233642578125 618.3374633789062 L 325.1680908203125 769.8939208984375 C 324.9273681640625 770.0052490234375 324.6523132324219 770.0162353515625 324.4033508300781 769.924560546875 C 324.1544494628906 769.8329467773438 323.9521789550781 769.646240234375 323.8410034179688 769.4053955078125 L 65.0919189453125 209.1526489257812 C 64.98065185546875 208.9119262695312 64.9696044921875 208.6368408203125 65.061279296875 208.387939453125 C 65.15289306640625 208.1390380859375 65.33966064453125 207.936767578125 65.5804443359375 207.8255615234375 L 393.7357177734375 56.26922607421875 C 393.8714599609375 56.20648193359375 394.0140686035156 56.17681884765625 394.1543884277344 56.17681884765625 Z" stroke="none" fill="rgba(0,0,0,0.07)"/>
      </g>
    </g>
    <g id="Port-3" data-name="Port">
      <g id="Port-4" data-name="Port">
        <path id="Port-5" data-name="Port" d="M731.55,683.263l37.481-23.317c3.384-2.066,7.2-1.744,8.513.719s-.358,6.134-3.742,8.2l-37.481,23.317c-3.384,2.066-7.2,1.744-8.513-.719S728.166,685.329,731.55,683.263Z" fill="url(#linear-gradient)"/>
        <g id="Clip-2" data-name="Clip" clip-path="url(#clip-path-2)">
          <g transform="matrix(1, 0, 0, 1, 15.71, 18.82)" filter="url(#Port-2)">
            <path id="Port-6" data-name="Port" d="M725.55,682.263l37.481-23.317c3.384-2.066,7.2-1.744,8.513.719s-.358,6.134-3.742,8.2l-37.481,23.317c-3.384,2.065-7.2,1.744-8.513-.719S722.166,684.329,725.55,682.263Z" transform="translate(-15.71 -18.82)" fill="#4d4d4d"/>
          </g>
        </g>
      </g>
    </g>
    <ellipse id="Densor" cx="5" cy="3.5" rx="5" ry="3.5" transform="translate(195 91)" fill="#26272d" opacity="0.102"/>
    <path id="Speaker" d="M184.079,120.051l57.374-26.184a3.737,3.737,0,0,1,3.834.75,1.5,1.5,0,0,1-.324,2.648L187.59,123.449a3.737,3.737,0,0,1-3.834-.75A1.5,1.5,0,0,1,184.079,120.051Z" fill="#26272d" opacity="0.102"/>
    <ellipse id="Camera" cx="9" cy="6" rx="9" ry="6" transform="translate(143 131)" fill="#26272d" opacity="0.102"/>
  </g>
</svg>
