<svg xmlns="http://www.w3.org/2000/svg" xmlns:xlink="http://www.w3.org/1999/xlink" width="369" height="753" viewBox="0 0 369 753">
  <defs>
    <filter id="Body_1">
      <feOffset dx="2.945" dy="-0.572" input="SourceAlpha"/>
      <feGaussianBlur stdDeviation="13.5" result="blur"/>
      <feFlood flood-color="#fff" flood-opacity="0.549" result="color"/>
      <feComposite operator="out" in="SourceGraphic" in2="blur"/>
      <feComposite operator="in" in="color"/>
      <feComposite operator="in" in2="SourceGraphic"/>
    </filter>
  </defs>
  <g id="iPhone_6" data-name="iPhone 6" transform="translate(-2 -5)">
    <g id="iPhone_6-2" data-name="iPhone 6">
      <g id="Body">
        <rect id="Body_2" data-name="Body 2" width="363" height="753" rx="53" transform="translate(5 5)" fill="#f4f4f5"/>
        <g data-type="innerShadowGroup">
          <rect id="Body_1-2" data-name="Body 1" width="351" height="741" rx="47" transform="translate(11 11)" fill="#ededed"/>
          <g transform="matrix(1, 0, 0, 1, 2, 5)" filter="url(#Body_1)">
            <rect id="Body_1-3" data-name="Body 1" width="351" height="741" rx="47" transform="translate(9 6)" fill="#fff"/>
          </g>
          <g id="Body_1-4" data-name="Body 1" transform="translate(11 11)" fill="none" stroke="#dcdcdd" stroke-linejoin="round" stroke-width="2">
            <rect width="351" height="741" rx="47" stroke="none"/>
            <rect x="1" y="1" width="349" height="739" rx="46" fill="none"/>
          </g>
        </g>
      </g>
      <g id="Plastic">
        <rect id="Rectangle" width="6" height="13" transform="translate(5 57)" opacity="0.051"/>
        <rect id="Rectangle-2" data-name="Rectangle" width="6" height="13" transform="translate(362 57)" opacity="0.051"/>
        <rect id="Rectangle-3" data-name="Rectangle" width="6" height="13" transform="translate(5 676)" opacity="0.051"/>
        <rect id="Rectangle-4" data-name="Rectangle" width="6" height="13" transform="translate(362 676)" opacity="0.051"/>
      </g>
      <g id="Button">
        <path id="Button-2" data-name="Button" d="M186.5,732a29.408,29.408,0,1,1,11.483-2.318A29.315,29.315,0,0,1,186.5,732Zm0-56a26.417,26.417,0,1,0,10.315,2.083A26.333,26.333,0,0,0,186.5,676Z" fill="#f6f6f7"/>
        <path id="Gradient_Overlay" data-name="Gradient Overlay" d="M157,702.5A29.5,29.5,0,1,1,186.5,732,29.5,29.5,0,0,1,157,702.5Z" fill="#fff" opacity="0.22" style="mix-blend-mode: multiply;isolation: isolate"/>
      </g>
      <circle id="Camera" cx="6.5" cy="6.5" r="6.5" transform="translate(123 52)" fill="#26272d" opacity="0.102"/>
      <rect id="Speaker" width="57" height="5" rx="2.5" transform="translate(159 56)" fill="#26272d" opacity="0.102"/>
      <circle id="Sensor" cx="4" cy="4" r="4" transform="translate(184 31)" fill="#26272d" opacity="0.102"/>
      <g id="Buttons">
        <path id="Button-3" data-name="Button" d="M5,102v30s-2-.9-2-2V104A2,2,0,0,1,5,102Z" fill="#bfbfc4"/>
        <path id="Button-4" data-name="Button" d="M2,0H3A0,0,0,0,1,3,0V56a0,0,0,0,1,0,0H2a2,2,0,0,1-2-2V2A2,2,0,0,1,2,0Z" transform="translate(2 167)" fill="#bfbfc4"/>
        <path id="Button-5" data-name="Button" d="M0,0H1A2,2,0,0,1,3,2V54a2,2,0,0,1-2,2H0a0,0,0,0,1,0,0V0A0,0,0,0,1,0,0Z" transform="translate(368 167)" fill="#bfbfc4"/>
        <path id="Button-6" data-name="Button" d="M2,0H3A0,0,0,0,1,3,0V56a0,0,0,0,1,0,0H2a2,2,0,0,1-2-2V2A2,2,0,0,1,2,0Z" transform="translate(2 236)" fill="#bfbfc4"/>
      </g>
      <g id="Srcreen1">
        <g id="Srcreen1-2" data-name="Srcreen1" transform="translate(27 93)">
          <rect id="Background" width="319" height="568" rx="2.553" fill="#f4f4f5"/>
          <g id="Paginator">
            <ellipse id="Circle" cx="2.344" cy="2.346" rx="2.344" ry="2.346" transform="translate(129.238 536.909)" fill="#26272d" opacity="0.2"/>
            <ellipse id="Circle-2" data-name="Circle" cx="2.344" cy="2.346" rx="2.344" ry="2.346" transform="translate(143.291 536.909)" fill="#26272d" opacity="0.2"/>
            <ellipse id="Circle-3" data-name="Circle" cx="2.344" cy="2.346" rx="2.344" ry="2.346" transform="translate(157.348 536.909)" fill="#26272d" opacity="0.2"/>
            <ellipse id="Circle-4" data-name="Circle" cx="2.344" cy="2.346" rx="2.344" ry="2.346" transform="translate(171.405 536.909)" fill="#26272d"/>
            <ellipse id="Circle-5" data-name="Circle" cx="2.344" cy="2.346" rx="2.344" ry="2.346" transform="translate(185.458 536.909)" fill="#26272d" opacity="0.2"/>
          </g>
          <g id="Forecast">
            <g id="days">
              <text id="MON" transform="translate(53.401 397.48)" fill="#26272d" font-size="7" font-family="AvenirNext-DemiBold, Avenir Next" font-weight="300" letter-spacing="0.1em" opacity="0.302"><tspan x="-9.622" y="0">MON</tspan></text>
              <text id="TUE" transform="translate(107.77 397.48)" fill="#26272d" font-size="7" font-family="AvenirNext-DemiBold, Avenir Next" font-weight="300" letter-spacing="0.1em" opacity="0.302"><tspan x="-7.322" y="0">TUE</tspan></text>
              <text id="WED" transform="translate(163.038 397.48)" fill="#26272d" font-size="7" font-family="AvenirNext-DemiBold, Avenir Next" font-weight="300" letter-spacing="0.1em" opacity="0.302"><tspan x="-9.023" y="0">WED</tspan></text>
              <text id="THU" transform="translate(215.607 397.48)" fill="#26272d" font-size="7" font-family="AvenirNext-DemiBold, Avenir Next" font-weight="300" letter-spacing="0.1em" opacity="0.302"><tspan x="-7.773" y="0">THU</tspan></text>
              <text id="FRI" transform="translate(271.777 397.48)" fill="#26272d" font-size="7" font-family="AvenirNext-DemiBold, Avenir Next" font-weight="300" letter-spacing="0.1em" opacity="0.302"><tspan x="-5.894" y="0">FRI</tspan></text>
            </g>
            <g id="weather">
              <path id="Icon" d="M58.838,423.481a5.8,5.8,0,0,0-1.66.243,6.672,6.672,0,0,0-11.844,3.4,3.852,3.852,0,0,0,.2,7.7c.078,0,.153-.008.229-.013v.013h12.85v-.01c.077,0,.152.01.23.01a5.67,5.67,0,1,0,0-11.339Zm0,9.827H47.288l-1.625-.01-.145.01a2.341,2.341,0,0,1-.109-4.679l1.314-.064.133-1.293a5.137,5.137,0,0,1,9.121-2.611l.645.809,1-.3a4.256,4.256,0,0,1,1.218-.179,4.158,4.158,0,1,1,0,8.316Z" fill="#26272d" opacity="0.6"/>
              <path id="Icon-2" data-name="Icon" d="M107.667,438.377V435.8a.749.749,0,1,1,1.5,0v2.577a.749.749,0,1,1-1.5,0Zm7.274-2.473-1.764-1.823a.791.791,0,0,1,0-1.093.732.732,0,0,1,1.058,0L116,434.811a.791.791,0,0,1,0,1.093.732.732,0,0,1-1.058,0Zm-14.035-.078a.785.785,0,0,1,0-1.084l1.748-1.806a.725.725,0,0,1,1.049,0,.784.784,0,0,1,0,1.084l-1.748,1.806a.725.725,0,0,1-1.049,0Zm3.453-3.566a6.066,6.066,0,0,1,0-8.382,5.609,5.609,0,0,1,8.115,0,6.066,6.066,0,0,1,0,8.382,5.609,5.609,0,0,1-8.115,0Zm-.188-4.191a4.247,4.247,0,1,0,4.245-4.386A4.322,4.322,0,0,0,104.173,428.069Zm11.727.771a.774.774,0,0,1,0-1.547h2.494a.774.774,0,0,1,0,1.547Zm-17.461,0a.774.774,0,0,1,0-1.547h2.494a.774.774,0,0,1,0,1.547Zm14.7-5.658a.785.785,0,0,1,0-1.084l1.748-1.806a.725.725,0,0,1,1.049,0,.784.784,0,0,1,0,1.084l-1.748,1.806a.726.726,0,0,1-1.049,0Zm-10.548-.036-1.764-1.823a.791.791,0,0,1,0-1.094.731.731,0,0,1,1.058,0l1.764,1.823a.791.791,0,0,1,0,1.094.732.732,0,0,1-1.058,0Zm5.072-2.812v-2.577a.749.749,0,1,1,1.5,0v2.577a.749.749,0,1,1-1.5,0Z" fill="#26272d" opacity="0.6"/>
              <path id="Icon-3" data-name="Icon" d="M269.763,438.377V435.8a.749.749,0,1,1,1.5,0v2.577a.749.749,0,1,1-1.5,0Zm7.274-2.473-1.764-1.823a.791.791,0,0,1,0-1.093.732.732,0,0,1,1.058,0l1.764,1.823a.791.791,0,0,1,0,1.093.732.732,0,0,1-1.058,0ZM263,435.826a.785.785,0,0,1,0-1.084l1.748-1.806a.725.725,0,0,1,1.049,0,.784.784,0,0,1,0,1.084l-1.748,1.806a.725.725,0,0,1-1.049,0Zm3.452-3.566a6.066,6.066,0,0,1,0-8.382,5.609,5.609,0,0,1,8.115,0,6.066,6.066,0,0,1,0,8.382,5.609,5.609,0,0,1-8.115,0Zm-.188-4.191a4.247,4.247,0,1,0,4.245-4.386A4.322,4.322,0,0,0,266.267,428.069Zm11.728.771a.774.774,0,0,1,0-1.547h2.494a.774.774,0,0,1,0,1.547Zm-17.461,0a.774.774,0,0,1,0-1.547h2.494a.774.774,0,0,1,0,1.547Zm14.7-5.658a.785.785,0,0,1,0-1.084l1.748-1.806a.725.725,0,0,1,1.049,0,.784.784,0,0,1,0,1.084l-1.748,1.806a.725.725,0,0,1-1.049,0Zm-10.548-.036-1.764-1.823a.791.791,0,0,1,0-1.094.731.731,0,0,1,1.058,0l1.764,1.823a.791.791,0,0,1,0,1.094.732.732,0,0,1-1.058,0Zm5.072-2.812v-2.577a.749.749,0,1,1,1.5,0v2.577a.749.749,0,1,1-1.5,0Z" fill="#26272d" opacity="0.6"/>
              <path id="Icon-4" data-name="Icon" d="M166.955,438.887v.01h-12.6v-.013c-.075,0-.149.013-.225.013a3.84,3.84,0,0,1-.192-7.674,6.525,6.525,0,0,1,8.026-5.7,5.626,5.626,0,1,1,10.057,4.839,5.656,5.656,0,0,1-4.837,8.538C167.1,438.9,167.03,438.89,166.955,438.887Zm-11.527-7.512-.13,1.289-1.288.064a2.333,2.333,0,0,0,.106,4.663l.142-.01,1.594.01h11.331a4.143,4.143,0,1,0-1.2-8.108l-.979.3-.633-.806a5.016,5.016,0,0,0-8.946,2.6ZM171,429.1a4.126,4.126,0,1,0-7.635-3.062,6.579,6.579,0,0,1,2.183,1.8A5.605,5.605,0,0,1,171,429.1Zm2.853-1.355a.452.452,0,0,1,0-.9h2.7a.452.452,0,0,1,0,.9Zm-2.252-4.82a.453.453,0,0,1,0-.639l1.91-1.918a.449.449,0,0,1,.637,0,.453.453,0,0,1,0,.639l-1.91,1.918a.449.449,0,0,1-.637,0Zm-9.337,0-1.909-1.918a.451.451,0,0,1,.637-.639l1.91,1.918a.453.453,0,0,1,0,.639.449.449,0,0,1-.637,0Zm4.535-2.263v-2.712a.451.451,0,1,1,.9,0v2.712a.451.451,0,1,1-.9,0Z" fill="#26272d" opacity="0.6"/>
              <path id="Icon-5" data-name="Icon" d="M219.966,438.887v.01h-12.6v-.013c-.075,0-.149.013-.225.013a3.84,3.84,0,0,1-.191-7.674,6.525,6.525,0,0,1,8.026-5.7,5.627,5.627,0,1,1,10.057,4.839,5.655,5.655,0,0,1-4.837,8.538C220.115,438.9,220.041,438.89,219.966,438.887Zm-11.528-7.512-.13,1.289-1.289.064a2.333,2.333,0,0,0,.107,4.663l.142-.01,1.594.01h11.331a4.143,4.143,0,1,0-1.2-8.108l-.979.3-.633-.806a5.016,5.016,0,0,0-8.946,2.6Zm15.577-2.272a4.126,4.126,0,1,0-7.636-3.062,6.581,6.581,0,0,1,2.183,1.8,5.605,5.605,0,0,1,5.452,1.263Zm2.853-1.355a.452.452,0,0,1,0-.9h2.7a.452.452,0,0,1,0,.9Zm-2.252-4.82a.453.453,0,0,1,0-.639l1.91-1.918a.449.449,0,0,1,.637,0,.454.454,0,0,1,0,.639l-1.91,1.918a.449.449,0,0,1-.637,0Zm-9.337,0-1.91-1.918a.453.453,0,0,1,0-.639.449.449,0,0,1,.637,0l1.91,1.918a.453.453,0,0,1,0,.639.449.449,0,0,1-.637,0Zm4.537-2.263v-2.712a.451.451,0,1,1,.9,0v2.712a.451.451,0,1,1-.9,0Z" fill="#26272d" opacity="0.6"/>
            </g>
            <g id="temp">
              <text id="_83_" data-name="83°" transform="translate(54.071 472.98)" fill="#26272d" font-size="16" font-family="AvenirNext-Bold, Avenir Next" font-weight="700"><tspan x="-13.664" y="0">83°</tspan></text>
              <text id="_85_" data-name="85°" transform="translate(110.145 472.98)" fill="#26272d" font-size="16" font-family="AvenirNext-Bold, Avenir Next" font-weight="700"><tspan x="-13.664" y="0">85°</tspan></text>
              <text id="_81_" data-name="81°" transform="translate(164.687 472.98)" fill="#26272d" font-size="16" font-family="AvenirNext-Bold, Avenir Next" font-weight="700"><tspan x="-13.664" y="0">81°</tspan></text>
              <text id="_82_" data-name="82°" transform="translate(217.698 472.98)" fill="#26272d" font-size="16" font-family="AvenirNext-Bold, Avenir Next" font-weight="700"><tspan x="-13.664" y="0">82°</tspan></text>
              <text id="_86_" data-name="86°" transform="translate(273.007 472.98)" fill="#26272d" font-size="16" font-family="AvenirNext-Bold, Avenir Next" font-weight="700"><tspan x="-13.664" y="0">86°</tspan></text>
            </g>
          </g>
          <g id="Temp-2" data-name="Temp">
            <g id="Speed">
              <text id="_4_KPH" data-name="4 KPH" transform="translate(68.289 311.63)" fill="#1c1c1c" font-size="11" font-family="AvenirNext-DemiBold, Avenir Next" font-weight="300" letter-spacing="0.05em"><tspan x="0" y="0">4 KPH</tspan></text>
              <path id="Icon-6" data-name="Icon" d="M51.031,313.527l-3.289-10.774a.6.6,0,0,1,.393-.751.6.6,0,0,1,.744.4l3.288,10.774a.6.6,0,0,1-.379.745l-.029.009a.592.592,0,0,1-.729-.4Zm-.05-5.949-.012-.041a.012.012,0,0,0,0,0l-1.434-4.7s0-.008,0-.013a.848.848,0,0,1-.036-.247.86.86,0,0,1,.4-.732l.1-.051a3.518,3.518,0,0,1,4.471.714,3.074,3.074,0,0,0,3.893.888l.1-.05a.347.347,0,0,1,.127-.022.38.38,0,0,1,.379.382c0,.009,0,.018,0,.027h0c0,.027-.01.055-.015.083-.3,1.6-1.42,4.318-3.933,3.74a3.7,3.7,0,0,0-3.173.309l-.054.033a.554.554,0,0,1-.266.067A.569.569,0,0,1,50.982,307.578Z" fill="#333"/>
            </g>
            <g id="Umbrella">
              <text id="_23_" data-name="23%" transform="translate(245.861 311.63)" fill="#1c1c1c" font-size="11" font-family="AvenirNext-DemiBold, Avenir Next" font-weight="300" letter-spacing="0.05em"><tspan x="0" y="0">23%</tspan></text>
              <path id="Icon-7" data-name="Icon" d="M235.57,306.474h0a7.482,7.482,0,0,0-6.079-4.776l-.051-.006a.58.58,0,0,1-.484-.572v-.386a.387.387,0,0,0-.774,0v.386a.58.58,0,0,1-.483.572l-.052.006a7.481,7.481,0,0,0-6.078,4.776.284.284,0,0,0-.023.113.29.29,0,0,0,.29.289.3.3,0,0,0,.086-.013s0,0,0,0l.038-.015a2.012,2.012,0,0,1,2.168.49l0,0,.021.024,0,0a.387.387,0,0,0,.543,0h0a2,2,0,0,1,3.479,1.345v3.908a1.807,1.807,0,0,0,3.614.019V312.6a.387.387,0,0,0-.774.02,1.033,1.033,0,0,1-2.065,0v-3.908a2,2,0,0,1,3.479-1.345h0a.388.388,0,0,0,.547,0l.013-.014a2.01,2.01,0,0,1,2.18-.5l.038.015s0,0,0,0a.29.29,0,0,0,.354-.389Z" fill="#333"/>
            </g>
            <g id="South">
              <text id="SOUTH-2" data-name="SOUTH" transform="translate(151.218 311.63)" fill="#1c1c1c" font-size="11" font-family="AvenirNext-DemiBold, Avenir Next" font-weight="300" letter-spacing="0.05em"><tspan x="0" y="0">SOUTH</tspan></text>
              <path id="Icon-8" data-name="Icon" d="M131.476,312.161a6.086,6.086,0,1,1,4.306,1.786A6.1,6.1,0,0,1,131.476,312.161Zm.621-6.9a.554.554,0,0,0-.048.056.337.337,0,0,0-.026.038,4.515,4.515,0,0,0,6.254,6.261.32.32,0,0,0,.038-.026.6.6,0,0,0,.056-.048.515.515,0,0,0,.136-.485l-.007-.026-.072-.275h0l-.011-.043a.193.193,0,0,1,.222-.222l.043.011h0l.274.073.026.006a.51.51,0,0,0,.484-.136.453.453,0,0,0,.049-.057.244.244,0,0,0,.026-.038,4.514,4.514,0,0,0-6.254-6.26.245.245,0,0,0-.038.026.481.481,0,0,0-.056.048.514.514,0,0,0-.136.485.155.155,0,0,1,.006.026l.074.276h0l.011.043a.193.193,0,0,1-.222.222l-.043-.011h0l-.274-.073-.026-.007a.516.516,0,0,0-.485.136Zm1.058,5.222a.274.274,0,0,1-.054-.312l.023-.039,1.641-2.845.021-.036a1.2,1.2,0,0,1,.174-.221,1.155,1.155,0,0,1,.225-.175l.022-.013,2.851-1.648.041-.023a.274.274,0,0,1,.365.365l-.023.04-1.646,2.854-.013.022a1.162,1.162,0,0,1-.4.4l-.036.021-2.842,1.642-.039.023a.274.274,0,0,1-.311-.054Zm2.3-2.956a.46.46,0,1,0,.327-.136A.462.462,0,0,0,135.456,307.524Z" fill="#333"/>
            </g>
            <g id="Date">
              <text id="Monday_march_16" data-name="Monday, march 16" transform="translate(131.8 88.878)" fill="#1c1c1c" font-size="11" font-family="Avenir-Medium, Avenir" font-weight="500"><tspan x="0" y="0">Monday, march 16</tspan></text>
              <path id="Cloudy_Icon" data-name="Cloudy Icon" d="M113.335,94.944c-.025,0-13.343.009-19.705.009a4.878,4.878,0,0,1-.423-9.741,6.848,6.848,0,0,1-.982-3.511A7.025,7.025,0,0,1,105.3,78.186a10.192,10.192,0,0,1,17.844,6.654A10.113,10.113,0,0,1,113.335,94.944ZM99.252,76.121A5.6,5.6,0,0,0,93.629,81.7a5.5,5.5,0,0,0,1.286,3.508,7.043,7.043,0,0,1,8.494-3.9,9.969,9.969,0,0,1,.96-1.893A5.612,5.612,0,0,0,99.252,76.121Zm13.7,0a8.817,8.817,0,0,0-8.431,6.283.7.7,0,0,1-.953.446,5.639,5.639,0,0,0-7.613,3.565.7.7,0,0,1-.951.447,3.493,3.493,0,1,0-1.376,6.695c6.363,0,19.679-.008,19.679-.008a8.716,8.716,0,0,0-.354-17.427Zm-6.745-.338a.707.707,0,0,1-.994,0,.694.694,0,0,1,0-.986l2.982-2.959a.707.707,0,0,1,.994,0,.694.694,0,0,1,0,.986Zm-6.957-2.451a.7.7,0,0,1-.7-.7V68.451a.7.7,0,0,1,1.406,0v4.184A.7.7,0,0,1,99.251,73.333ZM92.3,75.782l-2.982-2.959a.694.694,0,0,1,0-.986.707.707,0,0,1,.994,0L93.291,74.8a.694.694,0,0,1,0,.986A.707.707,0,0,1,92.3,75.782ZM90.82,81.7a.7.7,0,0,1-.7.7H85.9A.7.7,0,1,1,85.9,81h4.217A.7.7,0,0,1,90.82,81.7Z" fill="#26272d"/>
            </g>
            <g id="C">
              <text id="_21" data-name="21" transform="translate(156.888 254.237)" fill="#26272d" font-size="173" font-family="Helvetica"><tspan x="-96.214" y="0">21</tspan></text>
              <g id="Ellipse_1" data-name="Ellipse 1" transform="translate(242.619 123.087)" fill="none" stroke="#26272d" stroke-width="6.809">
                <ellipse cx="11.948" cy="11.96" rx="11.948" ry="11.96" stroke="none"/>
                <ellipse cx="11.948" cy="11.96" rx="8.543" ry="8.556" fill="none"/>
              </g>
            </g>
          </g>
          <g id="Navigation_Bar" data-name="Navigation Bar">
            <path id="Rectangle_3" data-name="Rectangle 3" d="M23.819,33.518V32.113H37.876v1.405Zm0-4.22V27.893H37.876V29.3Zm0-4.22v-1.4H37.876v1.4Z" fill="#333"/>
            <path id="Rectangle_3-2" data-name="Rectangle 3" d="M289.006,34.927V29.3h-5.623V27.893h5.623V22.264h1.4v5.629h5.623V29.3h-5.623v5.629Z" fill="#333"/>
            <text id="New_Providence" data-name="New Providence" transform="translate(159.911 34.011)" fill="#333" font-size="15" font-family="AvenirNext-Medium, Avenir Next" font-weight="500"><tspan x="-56.182" y="0">New Providence</tspan></text>
          </g>
        </g>
        <g id="Stroke_Effect" data-name="Stroke Effect" fill="none" stroke-linejoin="round" opacity="0.07">
          <path d="M29.553,661A2.553,2.553,0,0,1,27,658.446V95.553A2.553,2.553,0,0,1,29.553,93H343.446A2.553,2.553,0,0,1,346,95.553V658.446A2.553,2.553,0,0,1,343.446,661Z" stroke="none"/>
          <path d="M 343.4462890625 660.9996337890625 C 344.8565979003906 660.9996337890625 345.9995727539062 659.856689453125 345.9995727539062 658.4462890625 L 345.9995727539062 95.55302429199219 C 345.9995727539062 94.14273834228516 344.8565979003906 92.99973297119141 343.4462890625 92.99973297119141 L 29.55330085754395 92.99973297119141 C 28.14301681518555 92.99973297119141 27.00001525878906 94.14273834228516 27.00001525878906 95.55302429199219 L 27.00001525878906 658.4462890625 C 27.00001525878906 659.856689453125 28.14301681518555 660.9996337890625 29.55330085754395 660.9996337890625 L 343.4462890625 660.9996337890625 M 343.4462890625 661.9996337890625 L 29.55330085754395 661.9996337890625 C 27.59401512145996 661.9996337890625 26.00001525878906 660.4056396484375 26.00001525878906 658.4462890625 L 26.00001525878906 95.55302429199219 C 26.00001525878906 93.59373474121094 27.59401512145996 91.99973297119141 29.55330085754395 91.99973297119141 L 343.4462890625 91.99973297119141 C 345.4055786132812 91.99973297119141 346.9995727539062 93.59373474121094 346.9995727539062 95.55302429199219 L 346.9995727539062 658.4462890625 C 346.9995727539062 660.4056396484375 345.4055786132812 661.9996337890625 343.4462890625 661.9996337890625 Z" stroke="none" fill="rgba(0,0,0,0.07)"/>
        </g>
      </g>
    </g>
  </g>
</svg>
