<svg xmlns="http://www.w3.org/2000/svg" width="15.998" height="14.997" viewBox="0 0 15.998 14.997">
  <path id="LinkedIn_Icon" data-name="LinkedIn Icon" d="M433.578,7479.009V7473.6c0-1.361-.5-2.288-1.738-2.288a1.873,1.873,0,0,0-1.759,1.229,2.23,2.23,0,0,0-.113.82v5.652h-3.429s.045-9.171,0-10.119h3.429v1.433a3.408,3.408,0,0,1,3.09-1.672c2.256,0,3.949,1.445,3.949,4.554v5.8Zm-12.366,0V7468.89h3.427v10.119Zm1.691-11.5a1.962,1.962,0,1,1,.023,0Z" transform="translate(-421.009 -7464.012)" fill="#26272d" opacity="0.302"/>
</svg>
