<svg xmlns="http://www.w3.org/2000/svg" width="107.999" height="35.041" viewBox="0 0 107.999 35.041">
  <path id="Logo" d="M1293.62,7672.634c-.855-1.616.056-4.557.056-4.557l1.974-5.936c-1.053,2.03-2.619,4.139-4.536,4.008-1.978-.135-2.026-1.652-2.026-1.652a4.026,4.026,0,0,1-3.417,1.652c-2.889-.125-3.093-2.1-3.093-2.1s-2.117,2.149-3.833,2.1a2.534,2.534,0,0,1-2.192-.805,3.19,3.19,0,0,1-.079-3.039c.591-1.749.9-2.688,1.131-3.574a3.131,3.131,0,0,1-2.23,1.375,4.526,4.526,0,0,1-1,0c-.7,3.01-2.076,4.593-3.11,5.275-2.292,1.512-6.009,1.3-7.825-.855-1.416-1.679-1.922-4.306-.913-7.946a13.637,13.637,0,0,1,3.552-6.021,7.625,7.625,0,0,1,6.658-2.519c1.412.171,3.962,1.175,4.212,3.594a10.135,10.135,0,0,1,1.7-1.04c3.068-1.489,6.29-.732,10.3-.212a49.756,49.756,0,0,0,10.462.316c.2-.562.383-1.077.383-1.077s1.479-4.761,2.271-7.284a4.058,4.058,0,0,1,1.448-2.428,2.6,2.6,0,0,1,3.188.348c.476.657.9,2.44-.561,5.006a50.644,50.644,0,0,1-2.621,4.358l-.354.693c1.256-.16,2.567-.353,3.975-.572.092-.013.183-.029.275-.044,1.09-3.469,2.142-6.514,2.679-7.165a9.487,9.487,0,0,1,2.523-1.612.47.47,0,0,1,.659.124l-2.448,8.062a59.223,59.223,0,0,0,6.392-1.491,12.036,12.036,0,0,1-2.409,3.829c-.612.6-2.875,1.185-5.2,1.548-1.348,4.048-2.092,6.416-2.315,7.167-.383,1.283-1.689,4.494-.154,4.5.865.006,1.009-1.5,1.313-1.7.659-.423,2.3-.637,2.517,0,.077.226-.325,1.065-.325,1.065s-.876,2.34-4.324,2.317c-.506,0-3.944-.383-2.411-4.925.225-.667,1.231-4.218,2.388-8.076-.252.012-.493.018-.72.018l-3.249,0a30.93,30.93,0,0,1,.37,5.587c-.027,1.421-.349,8.721-2.028,11.795-1.412,2.586-2.777,3.012-3.684,3.2a3.039,3.039,0,0,1-.625.059A3.07,3.07,0,0,1,1293.62,7672.634Zm2.947-3.475a4.213,4.213,0,0,0-.171,1.807c.154.422.445.608,1.065.366.67-.262,1.566-.882,2.648-3.528a31.154,31.154,0,0,0,1.339-13.72Zm-24.288-18.664c-1.587.356-3,1.342-4.462,4.37s-1.7,6.6-.749,7.968a2.82,2.82,0,0,0,4.8.1,7.056,7.056,0,0,0,1.523-2.958,3.226,3.226,0,0,1-2.009-1.932,1.884,1.884,0,0,1,.53-2.216,1.755,1.755,0,0,1,2.519.814,3.667,3.667,0,0,1,.1,2.392,1.946,1.946,0,0,0,1.816-.347c.946-.79,1.614-2.77,2.623-3.324a9.014,9.014,0,0,1,2.848-.216s-.969,3.208-1.533,4.952c-.364,1.117-1.2,3.3-.769,3.734,1.005,1.021,2.754-.876,2.754-.876a8.929,8.929,0,0,1,2.822-6.132,5.2,5.2,0,0,1,3.981-1.678c1.535.083,1.525,1.317,1.525,1.317a6.491,6.491,0,0,1,.876-1.1c.62-.439,2.631-.216,2.631-.216s-1.764,5.535-2.076,6.461c-.185.553-.776,2.465.212,2.454,1.818-.02,3.361-2.56,4.349-4.734l1.988-5.98a61.371,61.371,0,0,1-8.742-.628c-6.036-.8-10.533-1.292-12.272.638-1.148,1.271-1.891,1.036-2.149.774-.087-.091-.042-.285-.042-.285l.073-.31a2.444,2.444,0,0,0-2.461-3.119A3.186,3.186,0,0,0,1272.278,7650.5Zm14.023,8.472a8.979,8.979,0,0,0-1.03,3.844,1.415,1.415,0,0,0,2.319,1.084,4.626,4.626,0,0,0,1.579-2.467,11.862,11.862,0,0,0,.7-3.586s.227-1.348-1.015-1.514a1.127,1.127,0,0,0-.151-.01C1287.859,7656.319,1287.07,7657.256,1286.3,7658.968Zm-14.067-1.618a1.8,1.8,0,0,0,1.481,1.578,2.531,2.531,0,0,0-.329-2.305.756.756,0,0,0-.526-.2C1272.49,7656.423,1272.119,7656.673,1272.234,7657.35Zm32.966-15.109c-.549,1.735-1.87,5.909-2.361,7.354.2-.3,1.15-1.943,1.676-2.747,1.46-2.234,2.009-4.628,1.753-5.319-.077-.206-.181-.292-.3-.292C1305.7,7641.236,1305.368,7641.712,1305.2,7642.241Zm48.825,23.965a.47.47,0,0,1-.493-.622l1.2-3.354s-2.174,4.014-4.518,3.987a2.5,2.5,0,0,1-2.192-.8,3.191,3.191,0,0,1-.079-3.04,24.576,24.576,0,0,0,1.19-3.6,2.534,2.534,0,0,1-2.51-.021,4.449,4.449,0,0,1-2.094,1.595c-1.416,6.716-6.843,6.61-8.492,4.809-1-1.088-1.144-2.737-.666-4.591a2.127,2.127,0,0,1-1.14.364,2.967,2.967,0,0,1-.894-.16,10.9,10.9,0,0,1-1.078,2.9c-1.974,3.066-4.6,2.766-5.662,1.915a5.486,5.486,0,0,1-1.523-1.892,4.7,4.7,0,0,1-7.808.94c-1.416-1.679-1.922-4.307-.913-7.946a13.343,13.343,0,0,1,3.552-6.021,9.648,9.648,0,0,1,6.629-2.768c3.771.173,4.647,2.093,4.722,3.486a10.011,10.011,0,0,1,1.489-.882c3.068-1.491,6.071-.945,10.08-.425a56.2,56.2,0,0,0,15.286.017c.191-.549.37-1.04.37-1.04s1.479-4.763,2.271-7.284a4.067,4.067,0,0,1,1.45-2.431,2.609,2.609,0,0,1,3.188.349c.474.659,1.038,2.076-.562,5.005a43.761,43.761,0,0,1-2.619,4.36l-.347.5c6.288-1.03,8.137-2.03,8.137-2.03a11.978,11.978,0,0,1-2.409,3.946c-.84.817-4.665,1.541-7.012,1.743l-1.013,3.224c1.535-2.342,5.485-2.136,5.348,0-.22,3.4-2.5,4.254-3.813,4.894a5.88,5.88,0,0,1-2.76.638,6.138,6.138,0,0,1,2.19.426c1.535,1.063.657,2.34,1.535,2.34.437,0,.663-.635.809-1.063a1.085,1.085,0,0,1,.944-.852,7.487,7.487,0,0,1,1.342-.081c.861.164.453.765.3,1.19a8.085,8.085,0,0,1-.676,1.248c-.749.94-2.3,1.071-3.249,1.046a1.921,1.921,0,0,1-2.1-2.126c0-1.5-1.753-1.491-1.753-1.491l-1.08,2.979s-.139.66-.576.66C1355.422,7666.244,1355.121,7666.206,1354.025,7666.206Zm-15.19-7a6.832,6.832,0,0,0-.659,4.042c.439,1.7,3.507,1.7,4.657-2.34.01-.069.042-.206.056-.273-.036,0-2.96-.152-2.741-1.643.1-.667,1.315-.426,2.411-.426.264,0,.5,0,.722-.007a2.294,2.294,0,0,0-.722-1.907,1.133,1.133,0,0,0-.8-.294C1340.92,7656.354,1339.737,7657.068,1338.835,7659.2Zm14.447-3.989s-.863,2.669-1.429,4.415c-.362,1.117-1.379,3.725-1.1,4.254.514.963,2.067-.718,2.067-.718,1.556-1.51,3.12-5.5,3.12-5.5s.722-2.41,1.323-4.384a77.732,77.732,0,0,1-14.441-.861c-6.363-1.234-8.973-1.075-10.957.851s-2.533.85-2.471.58a7.063,7.063,0,0,0,.185-2.013,2.138,2.138,0,0,0-2.39-1.972c-1.972-.042-4.21.992-5.672,4.02s-2.122,7.172-1.048,8.534c1.362,1.728,3.862.092,3.91-.932-.16-.472-1.8-5.454.89-6.9,1.327-.712,5.281.383.9,6.554-.22,1.489,3.068,4.894,5.214,1.038a6.353,6.353,0,0,0,.614-2.673,3.546,3.546,0,0,1-.851-3.257,1.353,1.353,0,0,1,1.593-.763c.909.32,1.092,1.5.915,3.544a.927.927,0,0,0,.8.383,1.56,1.56,0,0,0,1.52-.555c1.142-2.508,3.447-3.921,5.2-3.908,2.764.019,3.455,1.758,3.536,3.494.707-.05,1.034-.173,1.163-.316a2.731,2.731,0,0,1-.713-1.356,1.425,1.425,0,0,1,.7-1.648,1.47,1.47,0,0,1,1.926.47c.682,1.094-.476,2.4-.476,2.4.183.181.722.322,1.389-.283a13.331,13.331,0,0,0,1.533-1.915c.4-.522,1.463-.623,2.22-.623C1352.925,7655.172,1353.282,7655.212,1353.282,7655.212Zm5.626,3.138-.857,2.554a3.939,3.939,0,0,0,3.925-2.342c.828-1.608.433-2.266-.329-2.266A3.571,3.571,0,0,0,1358.908,7658.35Zm-32.957-2.1c-.61,1.144,0,3.4,0,3.4a4.25,4.25,0,0,0,1.315-3.191c-.01-.445-.277-.8-.607-.8C1326.432,7655.662,1326.175,7655.829,1325.951,7656.246Zm20.207-.217a1.215,1.215,0,0,0,.487,1.558,1.485,1.485,0,0,0,.612-1.452.6.6,0,0,0-.577-.416A.578.578,0,0,0,1346.158,7656.029Zm17.726-14.353c-.547,1.733-1.87,5.909-2.361,7.352.2-.3,1.152-1.943,1.676-2.745,1.46-2.236,2.009-4.628,1.753-5.319-.077-.206-.181-.293-.3-.293C1364.383,7640.671,1364.052,7641.147,1363.884,7641.676Z" transform="translate(-1262 -7638.96)" fill="#26272d"/>
</svg>
