<svg xmlns="http://www.w3.org/2000/svg" width="14" height="17.016" viewBox="0 0 14 17.016">
  <path id="Pinterest_Icon" data-name="Pinterest Icon" d="M386.74,7475.246c-.473,2.343-1.05,4.589-2.759,5.762-.528-3.541.775-6.2,1.38-9.023-1.031-1.641.124-4.945,2.3-4.131,2.676,1-2.318,6.1,1.035,6.74,3.5.665,4.93-5.743,2.759-7.827-3.136-3.009-9.13-.068-8.392,4.24.179,1.053,1.33,1.373.46,2.826-2.007-.42-2.606-1.917-2.529-3.913.124-3.266,3.1-5.554,6.093-5.87,3.78-.4,7.328,1.313,7.818,4.675.552,3.795-1.706,7.9-5.748,7.609A5.019,5.019,0,0,1,386.74,7475.246Z" transform="translate(-380.985 -7463.992)" fill="#26272d" opacity="0.302"/>
</svg>
