<svg xmlns="http://www.w3.org/2000/svg" width="150.784" height="21.775" viewBox="0 0 150.784 21.775">
  <g id="Stars" transform="translate(-724.606 -5671.434)">
    <path id="Star_Icon" data-name="Star Icon" d="M738.871,5677.871a1.529,1.529,0,0,0,1.454,1.057h5.988a1.075,1.075,0,0,1,.632,1.944l-4.844,3.52a1.53,1.53,0,0,0-.555,1.71l1.85,5.694a1.075,1.075,0,0,1-1.654,1.2l-4.844-3.52a1.528,1.528,0,0,0-1.8,0l-4.844,3.52a1.075,1.075,0,0,1-1.654-1.2l1.85-5.694a1.53,1.53,0,0,0-.555-1.71l-4.844-3.52a1.075,1.075,0,0,1,.632-1.944h5.988a1.528,1.528,0,0,0,1.454-1.057l1.85-5.694a1.075,1.075,0,0,1,2.045,0Z" fill="#f2bc3b"/>
    <path id="Star_Icon-2" data-name="Star Icon" d="M770.871,5677.871a1.529,1.529,0,0,0,1.454,1.057h5.988a1.075,1.075,0,0,1,.632,1.944l-4.844,3.52a1.53,1.53,0,0,0-.556,1.71l1.85,5.694a1.075,1.075,0,0,1-1.654,1.2l-4.844-3.52a1.528,1.528,0,0,0-1.8,0l-4.844,3.52a1.075,1.075,0,0,1-1.654-1.2l1.85-5.694a1.53,1.53,0,0,0-.555-1.71l-4.844-3.52a1.075,1.075,0,0,1,.632-1.944h5.988a1.529,1.529,0,0,0,1.454-1.057l1.85-5.694a1.075,1.075,0,0,1,2.045,0Z" fill="#f2bc3b"/>
    <path id="Star_Icon-3" data-name="Star Icon" d="M802.871,5677.871a1.529,1.529,0,0,0,1.454,1.057h5.988a1.075,1.075,0,0,1,.632,1.944l-4.844,3.52a1.53,1.53,0,0,0-.556,1.71l1.85,5.694a1.075,1.075,0,0,1-1.655,1.2l-4.844-3.52a1.528,1.528,0,0,0-1.8,0l-4.844,3.52a1.075,1.075,0,0,1-1.655-1.2l1.85-5.694a1.53,1.53,0,0,0-.556-1.71l-4.844-3.52a1.075,1.075,0,0,1,.632-1.944h5.988a1.529,1.529,0,0,0,1.454-1.057l1.85-5.694a1.075,1.075,0,0,1,2.045,0Z" fill="#f2bc3b"/>
    <path id="Star_Icon-4" data-name="Star Icon" d="M834.871,5677.871a1.529,1.529,0,0,0,1.454,1.057h5.988a1.075,1.075,0,0,1,.632,1.944l-4.844,3.52a1.53,1.53,0,0,0-.555,1.71l1.85,5.694a1.075,1.075,0,0,1-1.654,1.2l-4.844-3.52a1.528,1.528,0,0,0-1.8,0l-4.844,3.52a1.075,1.075,0,0,1-1.654-1.2l1.85-5.694a1.53,1.53,0,0,0-.555-1.71l-4.844-3.52a1.075,1.075,0,0,1,.632-1.944h5.988a1.528,1.528,0,0,0,1.454-1.057l1.85-5.694a1.075,1.075,0,0,1,2.045,0Z" fill="#f2bc3b"/>
    <path id="Star_Icon-5" data-name="Star Icon" d="M866.871,5677.871a1.529,1.529,0,0,0,1.454,1.057h5.988a1.075,1.075,0,0,1,.632,1.944l-4.844,3.52a1.53,1.53,0,0,0-.556,1.71l1.85,5.694a1.075,1.075,0,0,1-1.654,1.2l-4.844-3.52a1.528,1.528,0,0,0-1.8,0l-4.844,3.52a1.075,1.075,0,0,1-1.654-1.2l1.85-5.694a1.53,1.53,0,0,0-.555-1.71l-4.844-3.52a1.075,1.075,0,0,1,.632-1.944h5.988a1.529,1.529,0,0,0,1.454-1.057l1.85-5.694a1.075,1.075,0,0,1,2.045,0Z" fill="#f2bc3b"/>
  </g>
</svg>
