<svg xmlns="http://www.w3.org/2000/svg" width="16.998" height="13.999" viewBox="0 0 16.998 13.999">
  <path id="Twitter_Icon" data-name="Twitter Icon" d="M232,7466.658a6.94,6.94,0,0,1-2,.557,3.538,3.538,0,0,0,1.533-1.955,6.936,6.936,0,0,1-2.215.857A3.458,3.458,0,0,0,226.77,7465a3.511,3.511,0,0,0-3.487,3.534,3.6,3.6,0,0,0,.09.806,9.858,9.858,0,0,1-7.187-3.693,3.571,3.571,0,0,0,1.079,4.719,3.457,3.457,0,0,1-1.579-.442v.044a3.525,3.525,0,0,0,2.8,3.465,3.456,3.456,0,0,1-.919.125,3.379,3.379,0,0,1-.656-.064,3.5,3.5,0,0,0,3.257,2.454,6.939,6.939,0,0,1-4.331,1.512,7.1,7.1,0,0,1-.832-.048,9.784,9.784,0,0,0,5.346,1.587,9.925,9.925,0,0,0,9.922-10.054c0-.154,0-.306-.01-.457a7.144,7.144,0,0,0,1.74-1.829Z" transform="translate(-215.002 -7465.001)" fill="#26272d" opacity="0.302"/>
</svg>
