<svg xmlns="http://www.w3.org/2000/svg" width="681" height="314" viewBox="0 0 681 314">
  <g id="Dots" transform="translate(-890 -2806)">
    <circle id="Dot" cx="3" cy="3" r="3" transform="translate(965 2855)" fill="#267df4"/>
    <circle id="Dot-2" data-name="Dot" cx="3" cy="3" r="3" transform="translate(1032 2888)" fill="#267df4"/>
    <circle id="Dot-3" data-name="Dot" cx="3" cy="3" r="3" transform="translate(890 2905)" fill="#267df4"/>
    <circle id="Dot-4" data-name="Dot" cx="3" cy="3" r="3" transform="translate(1264 2847)" fill="#267df4"/>
    <circle id="Dot-5" data-name="Dot" cx="3" cy="3" r="3" transform="translate(1239 2872)" fill="#267df4"/>
    <circle id="Dot-6" data-name="Dot" cx="3" cy="3" r="3" transform="translate(1281 2887)" fill="#267df4"/>
    <circle id="Dot-7" data-name="Dot" cx="3" cy="3" r="3" transform="translate(1339 2830)" fill="#267df4"/>
    <circle id="Dot-8" data-name="Dot" cx="3" cy="3" r="3" transform="translate(999 2914)" fill="#267df4"/>
    <circle id="Dot-9" data-name="Dot" cx="3" cy="3" r="3" transform="translate(1364 2939)" fill="#267df4"/>
    <circle id="Dot-10" data-name="Dot" cx="3" cy="3" r="3" transform="translate(1256 2947)" fill="#267df4"/>
    <circle id="Dot-11" data-name="Dot" cx="3" cy="3" r="3" transform="translate(1505 2931)" fill="#267df4"/>
    <circle id="Dot-12" data-name="Dot" cx="3" cy="3" r="3" transform="translate(907 2806)" fill="#267df4"/>
    <circle id="Dot-13" data-name="Dot" cx="3" cy="3" r="3" transform="translate(1032 2997)" fill="#267df4"/>
    <circle id="Dot-14" data-name="Dot" cx="3" cy="3" r="3" transform="translate(1082 3031)" fill="#267df4"/>
    <circle id="Dot-15" data-name="Dot" cx="3" cy="3" r="3" transform="translate(1264 3048)" fill="#267df4"/>
    <circle id="Dot-16" data-name="Dot" cx="3" cy="3" r="3" transform="translate(1565 3114)" fill="#267df4"/>
    <circle id="Dot-17" data-name="Dot" cx="3" cy="3" r="3" transform="translate(1548 2922)" fill="#267df4"/>
    <circle id="Dot-18" data-name="Dot" cx="3" cy="3" r="3" transform="translate(1223 2963)" fill="#267df4"/>
    <circle id="Dot-19" data-name="Dot" cx="3" cy="3" r="3" transform="translate(924 2872)" fill="#267df4"/>
    <circle id="Dot-20" data-name="Dot" cx="3" cy="3" r="3" transform="translate(1273 2864)" fill="#267df4"/>
    <circle id="Dot-21" data-name="Dot" cx="3" cy="3" r="3" transform="translate(1256 2897)" fill="#267df4"/>
  </g>
</svg>
